<?xml version="1.0" encoding="UTF-8" standalone="no"?><svg xmlns="http://www.w3.org/2000/svg" xmlns:xlink="http://www.w3.org/1999/xlink" contentScriptType="application/ecmascript" contentStyleType="text/css" height="909px" preserveAspectRatio="none" style="width:1156px;height:909px;" version="1.1" viewBox="0 0 1156 909" width="1156px" zoomAndPan="magnify"><defs><filter height="300%" id="f1gn7buv1dds4v" width="300%" x="-1" y="-1"><feGaussianBlur result="blurOut" stdDeviation="2.0"/><feColorMatrix in="blurOut" result="blurOut2" type="matrix" values="0 0 0 0 0 0 0 0 0 0 0 0 0 0 0 0 0 0 .4 0"/><feOffset dx="4.0" dy="4.0" in="blurOut2" result="blurOut3"/><feBlend in="SourceGraphic" in2="blurOut3" mode="normal"/></filter></defs><g><text fill="#000000" font-family="sans-serif" font-size="18" lengthAdjust="spacingAndGlyphs" textLength="342" x="406.25" y="26.708">Activity Diagram - Quy trình Bán Hàng</text><ellipse cx="712" cy="40.9531" fill="#000000" filter="url(#f1gn7buv1dds4v)" rx="10" ry="10" style="stroke: none; stroke-width: 1.0;"/><rect fill="#FEFECE" filter="url(#f1gn7buv1dds4v)" height="33.9688" rx="12.5" ry="12.5" style="stroke: #A80036; stroke-width: 1.5;" width="213" x="605.5" y="70.9531"/><text fill="#000000" font-family="sans-serif" font-size="12" lengthAdjust="spacingAndGlyphs" textLength="193" x="615.5" y="92.0918">Khách hàng yêu cầu mua hàng</text><rect fill="#FEFECE" filter="url(#f1gn7buv1dds4v)" height="33.9688" rx="12.5" ry="12.5" style="stroke: #A80036; stroke-width: 1.5;" width="205" x="609.5" y="124.9219"/><text fill="#000000" font-family="sans-serif" font-size="12" lengthAdjust="spacingAndGlyphs" textLength="185" x="619.5" y="146.0605">Nhân viên nhập mã hàng hóa</text><rect fill="#FEFECE" filter="url(#f1gn7buv1dds4v)" height="33.9688" rx="12.5" ry="12.5" style="stroke: #A80036; stroke-width: 1.5;" width="195" x="614.5" y="178.8906"/><text fill="#000000" font-family="sans-serif" font-size="12" lengthAdjust="spacingAndGlyphs" textLength="175" x="624.5" y="200.0293">Hệ thống tìm kiếm hàng hóa</text><polygon fill="#FEFECE" filter="url(#f1gn7buv1dds4v)" points="653.5,232.8594,770.5,232.8594,782.5,244.8594,770.5,256.8594,653.5,256.8594,641.5,244.8594,653.5,232.8594" style="stroke: #A80036; stroke-width: 1.5;"/><text fill="#000000" font-family="sans-serif" font-size="11" lengthAdjust="spacingAndGlyphs" textLength="117" x="653.5" y="248.6675">Hàng hóa có tồn tại?</text><text fill="#000000" font-family="sans-serif" font-size="11" lengthAdjust="spacingAndGlyphs" textLength="15" x="626.5" y="242.2651">Có</text><text fill="#000000" font-family="sans-serif" font-size="11" lengthAdjust="spacingAndGlyphs" textLength="75" x="782.5" y="242.2651">Không tồn tại</text><rect fill="#FEFECE" filter="url(#f1gn7buv1dds4v)" height="33.9688" rx="12.5" ry="12.5" style="stroke: #A80036; stroke-width: 1.5;" width="192" x="299" y="266.8594"/><text fill="#000000" font-family="sans-serif" font-size="12" lengthAdjust="spacingAndGlyphs" textLength="172" x="309" y="287.998">Hiển thị thông tin hàng hóa</text><rect fill="#FEFECE" filter="url(#f1gn7buv1dds4v)" height="33.9688" rx="12.5" ry="12.5" style="stroke: #A80036; stroke-width: 1.5;" width="202" x="294" y="320.8281"/><text fill="#000000" font-family="sans-serif" font-size="12" lengthAdjust="spacingAndGlyphs" textLength="182" x="304" y="341.9668">Nhân viên nhập số lượng bán</text><polygon fill="#FEFECE" filter="url(#f1gn7buv1dds4v)" points="331.5,374.7969,458.5,374.7969,470.5,386.7969,458.5,398.7969,331.5,398.7969,319.5,386.7969,331.5,374.7969" style="stroke: #A80036; stroke-width: 1.5;"/><text fill="#000000" font-family="sans-serif" font-size="11" lengthAdjust="spacingAndGlyphs" textLength="127" x="331.5" y="390.605">Số lượng &lt;= Tồn kho?</text><text fill="#000000" font-family="sans-serif" font-size="11" lengthAdjust="spacingAndGlyphs" textLength="48" x="271.5" y="384.2026">Đủ hàng</text><text fill="#000000" font-family="sans-serif" font-size="11" lengthAdjust="spacingAndGlyphs" textLength="85" x="470.5" y="384.2026">Không đủ hàng</text><rect fill="#FEFECE" filter="url(#f1gn7buv1dds4v)" height="33.9688" rx="12.5" ry="12.5" style="stroke: #A80036; stroke-width: 1.5;" width="109" x="69" y="408.7969"/><text fill="#000000" font-family="sans-serif" font-size="12" lengthAdjust="spacingAndGlyphs" textLength="89" x="79" y="429.9355">Tạo phiếu bán</text><rect fill="#FEFECE" filter="url(#f1gn7buv1dds4v)" height="33.9688" rx="12.5" ry="12.5" style="stroke: #A80036; stroke-width: 1.5;" width="105" x="71" y="462.7656"/><text fill="#000000" font-family="sans-serif" font-size="12" lengthAdjust="spacingAndGlyphs" textLength="85" x="81" y="483.9043">Tính tổng tiền</text><path d="M207.5,521.1523 L207.5,529.7188 L187.5,533.7188 L207.5,537.7188 L207.5,546.2852 A0,0 0 0 0 207.5,546.2852 L444.5,546.2852 A0,0 0 0 0 444.5,546.2852 L444.5,531.1523 L434.5,521.1523 L207.5,521.1523 A0,0 0 0 0 207.5,521.1523 " fill="#FBFB77" filter="url(#f1gn7buv1dds4v)" style="stroke: #A80036; stroke-width: 1.0;"/><path d="M434.5,521.1523 L434.5,531.1523 L444.5,531.1523 L434.5,521.1523 " fill="#FBFB77" style="stroke: #A80036; stroke-width: 1.0;"/><text fill="#000000" font-family="sans-serif" font-size="13" lengthAdjust="spacingAndGlyphs" textLength="216" x="213.5" y="538.2192">Tồn kho = Tồn kho - Số lượng bán</text><rect fill="#FEFECE" filter="url(#f1gn7buv1dds4v)" height="33.9688" rx="12.5" ry="12.5" style="stroke: #A80036; stroke-width: 1.5;" width="128" x="59.5" y="516.7344"/><text fill="#000000" font-family="sans-serif" font-size="12" lengthAdjust="spacingAndGlyphs" textLength="108" x="69.5" y="537.873">Cập nhật tồn kho</text><rect fill="#FEFECE" filter="url(#f1gn7buv1dds4v)" height="33.9688" rx="12.5" ry="12.5" style="stroke: #A80036; stroke-width: 1.5;" width="193" x="27" y="570.7031"/><text fill="#000000" font-family="sans-serif" font-size="12" lengthAdjust="spacingAndGlyphs" textLength="173" x="37" y="591.8418">Lưu phiếu bán vào hệ thống</text><rect fill="#FEFECE" filter="url(#f1gn7buv1dds4v)" height="33.9688" rx="12.5" ry="12.5" style="stroke: #A80036; stroke-width: 1.5;" width="202" x="22.5" y="639.6719"/><text fill="#000000" font-family="sans-serif" font-size="12" lengthAdjust="spacingAndGlyphs" textLength="182" x="32.5" y="660.8105">In phiếu bán cho khách hàng</text><rect fill="#FEFECE" filter="url(#f1gn7buv1dds4v)" height="33.9688" rx="12.5" ry="12.5" style="stroke: #A80036; stroke-width: 1.5;" width="227" x="10" y="708.6406"/><text fill="#000000" font-family="sans-serif" font-size="12" lengthAdjust="spacingAndGlyphs" textLength="207" x="20" y="729.7793">Thông báo bán hàng thành công</text><rect fill="#FEFECE" filter="url(#f1gn7buv1dds4v)" height="33.9688" rx="12.5" ry="12.5" style="stroke: #A80036; stroke-width: 1.5;" width="272" x="530.5" y="408.7969"/><text fill="#000000" font-family="sans-serif" font-size="12" lengthAdjust="spacingAndGlyphs" textLength="252" x="540.5" y="429.9355">Thông báo lỗi: Không đủ hàng trong kho</text><rect fill="#FEFECE" filter="url(#f1gn7buv1dds4v)" height="33.9688" rx="12.5" ry="12.5" style="stroke: #A80036; stroke-width: 1.5;" width="224" x="554.5" y="462.7656"/><text fill="#000000" font-family="sans-serif" font-size="12" lengthAdjust="spacingAndGlyphs" textLength="204" x="564.5" y="483.9043">Hiển thị số lượng tồn kho hiện tại</text><rect fill="#FEFECE" filter="url(#f1gn7buv1dds4v)" height="33.9688" rx="12.5" ry="12.5" style="stroke: #A80036; stroke-width: 1.5;" width="193" x="570" y="516.7344"/><text fill="#000000" font-family="sans-serif" font-size="12" lengthAdjust="spacingAndGlyphs" textLength="173" x="580" y="537.873">Đề xuất số lượng có thể bán</text><polygon fill="#FEFECE" filter="url(#f1gn7buv1dds4v)" points="577,570.7031,756,570.7031,768,582.7031,756,594.7031,577,594.7031,565,582.7031,577,570.7031" style="stroke: #A80036; stroke-width: 1.5;"/><text fill="#000000" font-family="sans-serif" font-size="11" lengthAdjust="spacingAndGlyphs" textLength="179" x="577" y="586.5112">Khách hàng đồng ý mua ít hơn?</text><text fill="#000000" font-family="sans-serif" font-size="11" lengthAdjust="spacingAndGlyphs" textLength="40" x="525" y="580.1089">Đồng ý</text><text fill="#000000" font-family="sans-serif" font-size="11" lengthAdjust="spacingAndGlyphs" textLength="77" x="768" y="580.1089">Không đồng ý</text><rect fill="#FEFECE" filter="url(#f1gn7buv1dds4v)" height="33.9688" rx="12.5" ry="12.5" style="stroke: #A80036; stroke-width: 1.5;" width="161" x="474.5" y="604.7031"/><text fill="#000000" font-family="sans-serif" font-size="12" lengthAdjust="spacingAndGlyphs" textLength="141" x="484.5" y="625.8418">Cập nhật số lượng bán</text><rect fill="#FEFECE" filter="url(#f1gn7buv1dds4v)" height="33.9688" rx="12.5" ry="12.5" style="stroke: #A80036; stroke-width: 1.5;" width="104" x="726" y="604.7031"/><text fill="#000000" font-family="sans-serif" font-size="12" lengthAdjust="spacingAndGlyphs" textLength="84" x="736" y="625.8418">Hủy giao dịch</text><ellipse cx="778" cy="684.6719" fill="#FFFFFF" filter="url(#f1gn7buv1dds4v)" rx="11" ry="11" style="stroke: #000000; stroke-width: 1.0;"/><ellipse cx="778" cy="684.6719" fill="#000000" rx="6" ry="6" style="stroke: #7F7F7F; stroke-width: 1.0;"/><polygon fill="#FEFECE" filter="url(#f1gn7buv1dds4v)" points="395,748.6094,407,760.6094,395,772.6094,383,760.6094,395,748.6094" style="stroke: #A80036; stroke-width: 1.5;"/><rect fill="#FEFECE" filter="url(#f1gn7buv1dds4v)" height="33.9688" rx="12.5" ry="12.5" style="stroke: #A80036; stroke-width: 1.5;" width="268" x="877.5" y="266.8594"/><text fill="#000000" font-family="sans-serif" font-size="12" lengthAdjust="spacingAndGlyphs" textLength="248" x="887.5" y="287.998">Thông báo lỗi: Không tìm thấy hàng hóa</text><rect fill="#FEFECE" filter="url(#f1gn7buv1dds4v)" height="33.9688" rx="12.5" ry="12.5" style="stroke: #A80036; stroke-width: 1.5;" width="214" x="904.5" y="320.8281"/><text fill="#000000" font-family="sans-serif" font-size="12" lengthAdjust="spacingAndGlyphs" textLength="194" x="914.5" y="341.9668">Đề xuất tìm kiếm hàng tương tự</text><polygon fill="#FEFECE" filter="url(#f1gn7buv1dds4v)" points="951.5,374.7969,1071.5,374.7969,1083.5,386.7969,1071.5,398.7969,951.5,398.7969,939.5,386.7969,951.5,374.7969" style="stroke: #A80036; stroke-width: 1.5;"/><text fill="#000000" font-family="sans-serif" font-size="11" lengthAdjust="spacingAndGlyphs" textLength="120" x="951.5" y="390.605">Tìm kiếm hàng khác?</text><text fill="#000000" font-family="sans-serif" font-size="11" lengthAdjust="spacingAndGlyphs" textLength="15" x="924.5" y="384.2026">Có</text><text fill="#000000" font-family="sans-serif" font-size="11" lengthAdjust="spacingAndGlyphs" textLength="35" x="1083.5" y="384.2026">Không</text><rect fill="#FEFECE" filter="url(#f1gn7buv1dds4v)" height="33.9688" rx="12.5" ry="12.5" style="stroke: #A80036; stroke-width: 1.5;" width="124" x="867.5" y="408.7969"/><text fill="#000000" font-family="sans-serif" font-size="12" lengthAdjust="spacingAndGlyphs" textLength="104" x="877.5" y="429.9355">Quay lại tìm kiếm</text><rect fill="#FEFECE" filter="url(#f1gn7buv1dds4v)" height="33.9688" rx="12.5" ry="12.5" style="stroke: #A80036; stroke-width: 1.5;" width="104" x="1041.5" y="408.7969"/><text fill="#000000" font-family="sans-serif" font-size="12" lengthAdjust="spacingAndGlyphs" textLength="84" x="1051.5" y="429.9355">Hủy giao dịch</text><ellipse cx="1093.5" cy="473.7656" fill="#FFFFFF" filter="url(#f1gn7buv1dds4v)" rx="11" ry="11" style="stroke: #000000; stroke-width: 1.0;"/><ellipse cx="1093.5" cy="473.7656" fill="#000000" rx="6" ry="6" style="stroke: #7F7F7F; stroke-width: 1.0;"/><polygon fill="#FEFECE" filter="url(#f1gn7buv1dds4v)" points="712,778.6094,724,790.6094,712,802.6094,700,790.6094,712,778.6094" style="stroke: #A80036; stroke-width: 1.5;"/><rect fill="#FEFECE" filter="url(#f1gn7buv1dds4v)" height="33.9688" rx="12.5" ry="12.5" style="stroke: #A80036; stroke-width: 1.5;" width="135" x="644.5" y="822.6094"/><text fill="#000000" font-family="sans-serif" font-size="12" lengthAdjust="spacingAndGlyphs" textLength="115" x="654.5" y="843.748">Giao dịch hoàn tất</text><ellipse cx="712" cy="887.5781" fill="#FFFFFF" filter="url(#f1gn7buv1dds4v)" rx="11" ry="11" style="stroke: #000000; stroke-width: 1.0;"/><ellipse cx="712" cy="887.5781" fill="#000000" rx="6" ry="6" style="stroke: #7F7F7F; stroke-width: 1.0;"/><line style="stroke: #A80036; stroke-width: 1.5;" x1="712" x2="712" y1="50.9531" y2="70.9531"/><polygon fill="#A80036" points="708,60.9531,712,70.9531,716,60.9531,712,64.9531" style="stroke: #A80036; stroke-width: 1.0;"/><line style="stroke: #A80036; stroke-width: 1.5;" x1="712" x2="712" y1="104.9219" y2="124.9219"/><polygon fill="#A80036" points="708,114.9219,712,124.9219,716,114.9219,712,118.9219" style="stroke: #A80036; stroke-width: 1.0;"/><line style="stroke: #A80036; stroke-width: 1.5;" x1="712" x2="712" y1="158.8906" y2="178.8906"/><polygon fill="#A80036" points="708,168.8906,712,178.8906,716,168.8906,712,172.8906" style="stroke: #A80036; stroke-width: 1.0;"/><line style="stroke: #A80036; stroke-width: 1.5;" x1="395" x2="395" y1="300.8281" y2="320.8281"/><polygon fill="#A80036" points="391,310.8281,395,320.8281,399,310.8281,395,314.8281" style="stroke: #A80036; stroke-width: 1.0;"/><line style="stroke: #A80036; stroke-width: 1.5;" x1="123.5" x2="123.5" y1="442.7656" y2="462.7656"/><polygon fill="#A80036" points="119.5,452.7656,123.5,462.7656,127.5,452.7656,123.5,456.7656" style="stroke: #A80036; stroke-width: 1.0;"/><line style="stroke: #A80036; stroke-width: 1.5;" x1="123.5" x2="123.5" y1="496.7344" y2="516.7344"/><polygon fill="#A80036" points="119.5,506.7344,123.5,516.7344,127.5,506.7344,123.5,510.7344" style="stroke: #A80036; stroke-width: 1.0;"/><line style="stroke: #A80036; stroke-width: 1.5;" x1="123.5" x2="123.5" y1="550.7031" y2="570.7031"/><polygon fill="#A80036" points="119.5,560.7031,123.5,570.7031,127.5,560.7031,123.5,564.7031" style="stroke: #A80036; stroke-width: 1.0;"/><line style="stroke: #A80036; stroke-width: 1.5;" x1="123.5" x2="123.5" y1="604.6719" y2="639.6719"/><polygon fill="#A80036" points="119.5,629.6719,123.5,639.6719,127.5,629.6719,123.5,633.6719" style="stroke: #A80036; stroke-width: 1.0;"/><line style="stroke: #A80036; stroke-width: 1.5;" x1="123.5" x2="123.5" y1="673.6406" y2="708.6406"/><polygon fill="#A80036" points="119.5,698.6406,123.5,708.6406,127.5,698.6406,123.5,702.6406" style="stroke: #A80036; stroke-width: 1.0;"/><line style="stroke: #A80036; stroke-width: 1.5;" x1="666.5" x2="666.5" y1="442.7656" y2="462.7656"/><polygon fill="#A80036" points="662.5,452.7656,666.5,462.7656,670.5,452.7656,666.5,456.7656" style="stroke: #A80036; stroke-width: 1.0;"/><line style="stroke: #A80036; stroke-width: 1.5;" x1="666.5" x2="666.5" y1="496.7344" y2="516.7344"/><polygon fill="#A80036" points="662.5,506.7344,666.5,516.7344,670.5,506.7344,666.5,510.7344" style="stroke: #A80036; stroke-width: 1.0;"/><line style="stroke: #A80036; stroke-width: 1.5;" x1="778" x2="778" y1="638.6719" y2="673.6719"/><polygon fill="#A80036" points="774,663.6719,778,673.6719,782,663.6719,778,667.6719" style="stroke: #A80036; stroke-width: 1.0;"/><line style="stroke: #A80036; stroke-width: 1.5;" x1="565" x2="555" y1="582.7031" y2="582.7031"/><line style="stroke: #A80036; stroke-width: 1.5;" x1="555" x2="555" y1="582.7031" y2="604.7031"/><polygon fill="#A80036" points="551,594.7031,555,604.7031,559,594.7031,555,598.7031" style="stroke: #A80036; stroke-width: 1.0;"/><line style="stroke: #A80036; stroke-width: 1.5;" x1="768" x2="778" y1="582.7031" y2="582.7031"/><line style="stroke: #A80036; stroke-width: 1.5;" x1="778" x2="778" y1="582.7031" y2="604.7031"/><polygon fill="#A80036" points="774,594.7031,778,604.7031,782,594.7031,778,598.7031" style="stroke: #A80036; stroke-width: 1.0;"/><line style="stroke: #A80036; stroke-width: 1.5;" x1="555" x2="555" y1="638.6719" y2="760.6094"/><line style="stroke: #A80036; stroke-width: 1.5;" x1="555" x2="407" y1="760.6094" y2="760.6094"/><polygon fill="#A80036" points="417,756.6094,407,760.6094,417,764.6094,413,760.6094" style="stroke: #A80036; stroke-width: 1.0;"/><line style="stroke: #A80036; stroke-width: 1.5;" x1="666.5" x2="666.5" y1="550.7031" y2="570.7031"/><polygon fill="#A80036" points="662.5,560.7031,666.5,570.7031,670.5,560.7031,666.5,564.7031" style="stroke: #A80036; stroke-width: 1.0;"/><line style="stroke: #A80036; stroke-width: 1.5;" x1="319.5" x2="123.5" y1="386.7969" y2="386.7969"/><line style="stroke: #A80036; stroke-width: 1.5;" x1="123.5" x2="123.5" y1="386.7969" y2="408.7969"/><polygon fill="#A80036" points="119.5,398.7969,123.5,408.7969,127.5,398.7969,123.5,402.7969" style="stroke: #A80036; stroke-width: 1.0;"/><line style="stroke: #A80036; stroke-width: 1.5;" x1="470.5" x2="666.5" y1="386.7969" y2="386.7969"/><line style="stroke: #A80036; stroke-width: 1.5;" x1="666.5" x2="666.5" y1="386.7969" y2="408.7969"/><polygon fill="#A80036" points="662.5,398.7969,666.5,408.7969,670.5,398.7969,666.5,402.7969" style="stroke: #A80036; stroke-width: 1.0;"/><line style="stroke: #A80036; stroke-width: 1.5;" x1="123.5" x2="123.5" y1="742.6094" y2="760.6094"/><line style="stroke: #A80036; stroke-width: 1.5;" x1="123.5" x2="383" y1="760.6094" y2="760.6094"/><polygon fill="#A80036" points="373,756.6094,383,760.6094,373,764.6094,377,760.6094" style="stroke: #A80036; stroke-width: 1.0;"/><line style="stroke: #A80036; stroke-width: 1.5;" x1="395" x2="395" y1="354.7969" y2="374.7969"/><polygon fill="#A80036" points="391,364.7969,395,374.7969,399,364.7969,395,368.7969" style="stroke: #A80036; stroke-width: 1.0;"/><line style="stroke: #A80036; stroke-width: 1.5;" x1="1011.5" x2="1011.5" y1="300.8281" y2="320.8281"/><polygon fill="#A80036" points="1007.5,310.8281,1011.5,320.8281,1015.5,310.8281,1011.5,314.8281" style="stroke: #A80036; stroke-width: 1.0;"/><line style="stroke: #A80036; stroke-width: 1.5;" x1="1093.5" x2="1093.5" y1="442.7656" y2="462.7656"/><polygon fill="#A80036" points="1089.5,452.7656,1093.5,462.7656,1097.5,452.7656,1093.5,456.7656" style="stroke: #A80036; stroke-width: 1.0;"/><line style="stroke: #A80036; stroke-width: 1.5;" x1="939.5" x2="929.5" y1="386.7969" y2="386.7969"/><line style="stroke: #A80036; stroke-width: 1.5;" x1="929.5" x2="929.5" y1="386.7969" y2="408.7969"/><polygon fill="#A80036" points="925.5,398.7969,929.5,408.7969,933.5,398.7969,929.5,402.7969" style="stroke: #A80036; stroke-width: 1.0;"/><line style="stroke: #A80036; stroke-width: 1.5;" x1="1083.5" x2="1093.5" y1="386.7969" y2="386.7969"/><line style="stroke: #A80036; stroke-width: 1.5;" x1="1093.5" x2="1093.5" y1="386.7969" y2="408.7969"/><polygon fill="#A80036" points="1089.5,398.7969,1093.5,408.7969,1097.5,398.7969,1093.5,402.7969" style="stroke: #A80036; stroke-width: 1.0;"/><line style="stroke: #A80036; stroke-width: 1.5;" x1="929.5" x2="929.5" y1="442.7656" y2="790.6094"/><line style="stroke: #A80036; stroke-width: 1.5;" x1="929.5" x2="724" y1="790.6094" y2="790.6094"/><polygon fill="#A80036" points="734,786.6094,724,790.6094,734,794.6094,730,790.6094" style="stroke: #A80036; stroke-width: 1.0;"/><line style="stroke: #A80036; stroke-width: 1.5;" x1="1011.5" x2="1011.5" y1="354.7969" y2="374.7969"/><polygon fill="#A80036" points="1007.5,364.7969,1011.5,374.7969,1015.5,364.7969,1011.5,368.7969" style="stroke: #A80036; stroke-width: 1.0;"/><line style="stroke: #A80036; stroke-width: 1.5;" x1="641.5" x2="395" y1="244.8594" y2="244.8594"/><line style="stroke: #A80036; stroke-width: 1.5;" x1="395" x2="395" y1="244.8594" y2="266.8594"/><polygon fill="#A80036" points="391,256.8594,395,266.8594,399,256.8594,395,260.8594" style="stroke: #A80036; stroke-width: 1.0;"/><line style="stroke: #A80036; stroke-width: 1.5;" x1="782.5" x2="1011.5" y1="244.8594" y2="244.8594"/><line style="stroke: #A80036; stroke-width: 1.5;" x1="1011.5" x2="1011.5" y1="244.8594" y2="266.8594"/><polygon fill="#A80036" points="1007.5,256.8594,1011.5,266.8594,1015.5,256.8594,1011.5,260.8594" style="stroke: #A80036; stroke-width: 1.0;"/><line style="stroke: #A80036; stroke-width: 1.5;" x1="395" x2="395" y1="772.6094" y2="790.6094"/><line style="stroke: #A80036; stroke-width: 1.5;" x1="395" x2="700" y1="790.6094" y2="790.6094"/><polygon fill="#A80036" points="690,786.6094,700,790.6094,690,794.6094,694,790.6094" style="stroke: #A80036; stroke-width: 1.0;"/><line style="stroke: #A80036; stroke-width: 1.5;" x1="712" x2="712" y1="212.8594" y2="232.8594"/><polygon fill="#A80036" points="708,222.8594,712,232.8594,716,222.8594,712,226.8594" style="stroke: #A80036; stroke-width: 1.0;"/><line style="stroke: #A80036; stroke-width: 1.5;" x1="712" x2="712" y1="802.6094" y2="822.6094"/><polygon fill="#A80036" points="708,812.6094,712,822.6094,716,812.6094,712,816.6094" style="stroke: #A80036; stroke-width: 1.0;"/><line style="stroke: #A80036; stroke-width: 1.5;" x1="712" x2="712" y1="856.5781" y2="876.5781"/><polygon fill="#A80036" points="708,866.5781,712,876.5781,716,866.5781,712,870.5781" style="stroke: #A80036; stroke-width: 1.0;"/><!--MD5=[a059777d3502463e4cc74a9312a830b3]
@startuml activity-diagram-ban-hang
title Activity Diagram - Quy trình Bán Hàng

start

:Khách hàng yêu cầu mua hàng;

:Nhân viên nhập mã hàng hóa;

:Hệ thống tìm kiếm hàng hóa;

if (Hàng hóa có tồn tại?) then (Có)
    :Hiển thị thông tin hàng hóa;
    
    :Nhân viên nhập số lượng bán;
    
    if (Số lượng <= Tồn kho?) then (Đủ hàng)
        :Tạo phiếu bán;
        
        :Tính tổng tiền;
        
        :Cập nhật tồn kho;
        note right: Tồn kho = Tồn kho - Số lượng bán
        
        :Lưu phiếu bán vào hệ thống;
        
        :In phiếu bán cho khách hàng;
        
        :Thông báo bán hàng thành công;
        
    else (Không đủ hàng)
        :Thông báo lỗi: Không đủ hàng trong kho;
        
        :Hiển thị số lượng tồn kho hiện tại;
        
        :Đề xuất số lượng có thể bán;
        
        if (Khách hàng đồng ý mua ít hơn?) then (Đồng ý)
            :Cập nhật số lượng bán;
            
        else (Không đồng ý)
            :Hủy giao dịch;
            stop
        endif
    endif
    
else (Không tồn tại)
    :Thông báo lỗi: Không tìm thấy hàng hóa;
    
    :Đề xuất tìm kiếm hàng tương tự;
    
    if (Tìm kiếm hàng khác?) then (Có)
        :Quay lại tìm kiếm;
        
    else (Không)
        :Hủy giao dịch;
        stop
    endif
endif

:Giao dịch hoàn tất;

stop

@enduml

PlantUML version 1.2020.02(Sun Mar 01 10:22:07 UTC 2020)
(GPL source distribution)
Java Runtime: OpenJDK Runtime Environment
JVM: OpenJDK 64-Bit Server VM
Java Version: 11.0.14.1+1-LTS
Operating System: Linux
Default Encoding: UTF-8
Language: en
Country: null
--></g></svg>