<?xml version="1.0" encoding="UTF-8" standalone="no"?><svg xmlns="http://www.w3.org/2000/svg" xmlns:xlink="http://www.w3.org/1999/xlink" contentScriptType="application/ecmascript" contentStyleType="text/css" height="1664px" preserveAspectRatio="none" style="width:1779px;height:1664px;" version="1.1" viewBox="0 0 1779 1664" width="1779px" zoomAndPan="magnify"><defs><filter height="300%" id="fef6q0t4s2mij" width="300%" x="-1" y="-1"><feGaussianBlur result="blurOut" stdDeviation="2.0"/><feColorMatrix in="blurOut" result="blurOut2" type="matrix" values="0 0 0 0 0 0 0 0 0 0 0 0 0 0 0 0 0 0 .4 0"/><feOffset dx="4.0" dy="4.0" in="blurOut2" result="blurOut3"/><feBlend in="SourceGraphic" in2="blurOut3" mode="normal"/></filter></defs><g><text fill="#000000" font-family="sans-serif" font-size="18" lengthAdjust="spacingAndGlyphs" textLength="454" x="665.5" y="16.708">Deployment Diagram - Quản Lý Cửa Hàng Tạp Hóa</text><!--MD5=[8699c0c8e953ee53654a072cc875bfb4]
cluster Browser--><polygon fill="#FFFFFF" filter="url(#fef6q0t4s2mij)" points="308,227.9531,318,217.9531,501,217.9531,501,487.4531,491,497.4531,308,497.4531,308,227.9531" style="stroke: #000000; stroke-width: 1.5;"/><line style="stroke: #000000; stroke-width: 1.5;" x1="491" x2="500" y1="227.9531" y2="218.9531"/><line style="stroke: #000000; stroke-width: 1.5;" x1="308" x2="491" y1="227.9531" y2="227.9531"/><line style="stroke: #000000; stroke-width: 1.5;" x1="491" x2="491" y1="227.9531" y2="497.4531"/><text fill="#000000" font-family="sans-serif" font-size="14" font-weight="bold" lengthAdjust="spacingAndGlyphs" textLength="117" x="342" y="243.9482">Client Browser</text><!--MD5=[d9ab88cc235d172554d9cd0b79ab0fcc]
cluster DevMachine--><polygon fill="#FFFFFF" filter="url(#fef6q0t4s2mij)" points="880,63.4531,890,53.4531,1309,53.4531,1309,282.3131,1299,292.3131,880,292.3131,880,63.4531" style="stroke: #000000; stroke-width: 1.5;"/><line style="stroke: #000000; stroke-width: 1.5;" x1="1299" x2="1308" y1="63.4531" y2="54.4531"/><line style="stroke: #000000; stroke-width: 1.5;" x1="880" x2="1299" y1="63.4531" y2="63.4531"/><line style="stroke: #000000; stroke-width: 1.5;" x1="1299" x2="1299" y1="63.4531" y2="292.3131"/><text fill="#000000" font-family="sans-serif" font-size="14" font-weight="bold" lengthAdjust="spacingAndGlyphs" textLength="174" x="1003.5" y="79.4482">Development Machine</text><!--MD5=[767c9f0c8c73baa773c11c8c4fd7997a]
cluster AppServer--><polygon fill="#FFFFFF" filter="url(#fef6q0t4s2mij)" points="541,397.9531,551,387.9531,1121,387.9531,1121,1051.9531,1111,1061.9531,541,1061.9531,541,397.9531" style="stroke: #000000; stroke-width: 1.5;"/><line style="stroke: #000000; stroke-width: 1.5;" x1="1111" x2="1120" y1="397.9531" y2="388.9531"/><line style="stroke: #000000; stroke-width: 1.5;" x1="541" x2="1111" y1="397.9531" y2="397.9531"/><line style="stroke: #000000; stroke-width: 1.5;" x1="1111" x2="1111" y1="397.9531" y2="1061.9531"/><text fill="#000000" font-family="sans-serif" font-size="14" font-weight="bold" lengthAdjust="spacingAndGlyphs" textLength="145" x="754.5" y="413.9482">Application Server</text><!--MD5=[b8deb8232e2b09cbaf6098d46837dce0]
cluster SpringApp--><rect fill="#FFFFFF" filter="url(#fef6q0t4s2mij)" height="459.5" style="stroke: #000000; stroke-width: 1.5;" width="284" x="581" y="562.4531"/><rect fill="#FFFFFF" height="10" style="stroke: #000000; stroke-width: 1.5;" width="15" x="845" y="567.4531"/><rect fill="#FFFFFF" height="2" style="stroke: #000000; stroke-width: 1.5;" width="4" x="843" y="569.4531"/><rect fill="#FFFFFF" height="2" style="stroke: #000000; stroke-width: 1.5;" width="4" x="843" y="573.4531"/><text fill="#000000" font-family="sans-serif" font-size="14" font-weight="bold" lengthAdjust="spacingAndGlyphs" textLength="184" x="631" y="588.4482">Spring Boot Application</text><!--MD5=[cf5c07be179953f7a4c730b9f7507b52]
cluster FileSystem--><polygon fill="#FFFFFF" filter="url(#fef6q0t4s2mij)" points="246,1136.9531,256,1126.9531,1256,1126.9531,1256,1511.9531,1246,1521.9531,246,1521.9531,246,1136.9531" style="stroke: #000000; stroke-width: 1.5;"/><line style="stroke: #000000; stroke-width: 1.5;" x1="1246" x2="1255" y1="1136.9531" y2="1127.9531"/><line style="stroke: #000000; stroke-width: 1.5;" x1="246" x2="1246" y1="1136.9531" y2="1136.9531"/><line style="stroke: #000000; stroke-width: 1.5;" x1="1246" x2="1246" y1="1136.9531" y2="1521.9531"/><text fill="#000000" font-family="sans-serif" font-size="14" font-weight="bold" lengthAdjust="spacingAndGlyphs" textLength="90" x="702" y="1152.9482">File System</text><!--MD5=[8caa3e07652ad3a3f687ca893079ed67]
cluster DataFiles--><path d="M907,1200.9531 C907,1190.9531 1057.5,1190.9531 1057.5,1190.9531 C1057.5,1190.9531 1208,1190.9531 1208,1200.9531 L1208,1471.9531 C1208,1481.9531 1057.5,1481.9531 1057.5,1481.9531 C1057.5,1481.9531 907,1481.9531 907,1471.9531 L907,1200.9531 " fill="#FFFFFF" filter="url(#fef6q0t4s2mij)" style="stroke: #000000; stroke-width: 1.5;"/><path d="M907,1200.9531 C907,1210.9531 1057.5,1210.9531 1057.5,1210.9531 C1057.5,1210.9531 1208,1210.9531 1208,1200.9531 " fill="none" style="stroke: #000000; stroke-width: 1.5;"/><text fill="#000000" font-family="sans-serif" font-size="14" font-weight="bold" lengthAdjust="spacingAndGlyphs" textLength="76" x="1019.5" y="1225.9482">Data Files</text><!--MD5=[8875682840fa0e916094eb86cf3b0063]
cluster StaticFiles--><polygon fill="#FFFFFF" filter="url(#fef6q0t4s2mij)" points="286,1205.9531,425,1205.9531,432,1228.25,592,1228.25,592,1481.9531,286,1481.9531,286,1205.9531" style="stroke: #000000; stroke-width: 1.5;"/><line style="stroke: #000000; stroke-width: 1.5;" x1="286" x2="432" y1="1228.25" y2="1228.25"/><text fill="#000000" font-family="sans-serif" font-size="14" font-weight="bold" lengthAdjust="spacingAndGlyphs" textLength="133" x="290" y="1220.9482">Static Resources</text><!--MD5=[e60e88ecedf54f7d55b113b5da790a64]
cluster Templates--><polygon fill="#FFFFFF" filter="url(#fef6q0t4s2mij)" points="632,1205.9531,720,1205.9531,727,1228.25,867,1228.25,867,1308.9531,632,1308.9531,632,1205.9531" style="stroke: #000000; stroke-width: 1.5;"/><line style="stroke: #000000; stroke-width: 1.5;" x1="632" x2="727" y1="1228.25" y2="1228.25"/><text fill="#000000" font-family="sans-serif" font-size="14" font-weight="bold" lengthAdjust="spacingAndGlyphs" textLength="82" x="636" y="1220.9482">Templates</text><!--MD5=[d1470243d47c7df7999b6c1d1bb81b90]
cluster OS--><polygon fill="#FFFFFF" filter="url(#fef6q0t4s2mij)" points="1334,1383.9531,1344,1373.9531,1551,1373.9531,1551,1642.9531,1541,1652.9531,1334,1652.9531,1334,1383.9531" style="stroke: #000000; stroke-width: 1.5;"/><line style="stroke: #000000; stroke-width: 1.5;" x1="1541" x2="1550" y1="1383.9531" y2="1374.9531"/><line style="stroke: #000000; stroke-width: 1.5;" x1="1334" x2="1541" y1="1383.9531" y2="1383.9531"/><line style="stroke: #000000; stroke-width: 1.5;" x1="1541" x2="1541" y1="1383.9531" y2="1652.9531"/><text fill="#000000" font-family="sans-serif" font-size="14" font-weight="bold" lengthAdjust="spacingAndGlyphs" textLength="141" x="1368" y="1399.9482">Operating System</text><!--MD5=[69710cb6c1df387daaefb94dbb71d3ec]
entity WebBrowser--><rect fill="#FEFECE" filter="url(#fef6q0t4s2mij)" height="36.2969" style="stroke: #A80036; stroke-width: 1.5;" width="112" x="346" y="265.9531"/><rect fill="#FEFECE" height="5" style="stroke: #A80036; stroke-width: 1.5;" width="10" x="341" y="270.9531"/><rect fill="#FEFECE" height="5" style="stroke: #A80036; stroke-width: 1.5;" width="10" x="341" y="292.25"/><text fill="#000000" font-family="sans-serif" font-size="14" lengthAdjust="spacingAndGlyphs" textLength="92" x="356" y="288.9482">Web Browser</text><!--MD5=[194a92f280a7d2c2f105939ff984a7cf]
entity Frontend--><rect fill="#FEFECE" filter="url(#fef6q0t4s2mij)" height="36.2969" style="stroke: #A80036; stroke-width: 1.5;" width="108" x="349" y="437.4531"/><rect fill="#FEFECE" height="5" style="stroke: #A80036; stroke-width: 1.5;" width="10" x="344" y="442.4531"/><rect fill="#FEFECE" height="5" style="stroke: #A80036; stroke-width: 1.5;" width="10" x="344" y="463.75"/><text fill="#000000" font-family="sans-serif" font-size="14" lengthAdjust="spacingAndGlyphs" textLength="88" x="359" y="460.4482">HTML/CSS/JS</text><!--MD5=[4410a6497a77038ffb56c75e6ffafee9]
entity VSCode--><rect fill="#FEFECE" filter="url(#fef6q0t4s2mij)" height="36.2969" style="stroke: #A80036; stroke-width: 1.5;" width="79" x="1206.5" y="101.4531"/><rect fill="#FEFECE" height="5" style="stroke: #A80036; stroke-width: 1.5;" width="10" x="1201.5" y="106.4531"/><rect fill="#FEFECE" height="5" style="stroke: #A80036; stroke-width: 1.5;" width="10" x="1201.5" y="127.75"/><text fill="#000000" font-family="sans-serif" font-size="14" lengthAdjust="spacingAndGlyphs" textLength="59" x="1216.5" y="124.4482">VS Code</text><!--MD5=[ec48ced85c26a06b9919dbe5f9df6831]
entity Git--><rect fill="#FEFECE" filter="url(#fef6q0t4s2mij)" height="36.2969" style="stroke: #A80036; stroke-width: 1.5;" width="117" x="1054.5" y="101.4531"/><rect fill="#FEFECE" height="5" style="stroke: #A80036; stroke-width: 1.5;" width="10" x="1049.5" y="106.4531"/><rect fill="#FEFECE" height="5" style="stroke: #A80036; stroke-width: 1.5;" width="10" x="1049.5" y="127.75"/><text fill="#000000" font-family="sans-serif" font-size="14" lengthAdjust="spacingAndGlyphs" textLength="97" x="1064.5" y="124.4482">Git Repository</text><!--MD5=[31326c4d4fc1ce2e209086ee60c5e804]
entity BuildTool--><rect fill="#FEFECE" filter="url(#fef6q0t4s2mij)" height="36.2969" style="stroke: #A80036; stroke-width: 1.5;" width="115" x="904.5" y="101.4531"/><rect fill="#FEFECE" height="5" style="stroke: #A80036; stroke-width: 1.5;" width="10" x="899.5" y="106.4531"/><rect fill="#FEFECE" height="5" style="stroke: #A80036; stroke-width: 1.5;" width="10" x="899.5" y="127.75"/><text fill="#000000" font-family="sans-serif" font-size="14" lengthAdjust="spacingAndGlyphs" textLength="95" x="914.5" y="124.4482">Maven/Gradle</text><!--MD5=[2db7b0a92adf171f9bbad9c9630bdb1b]
entity JRE--><rect fill="#FEFECE" filter="url(#fef6q0t4s2mij)" height="36.2969" style="stroke: #A80036; stroke-width: 1.5;" width="199" x="889.5" y="735.9531"/><rect fill="#FEFECE" height="5" style="stroke: #A80036; stroke-width: 1.5;" width="10" x="884.5" y="740.9531"/><rect fill="#FEFECE" height="5" style="stroke: #A80036; stroke-width: 1.5;" width="10" x="884.5" y="762.25"/><text fill="#000000" font-family="sans-serif" font-size="14" lengthAdjust="spacingAndGlyphs" textLength="179" x="899.5" y="758.9482">Java Runtime Environment</text><!--MD5=[1332dbd72c6cf61a80880b0e528e837e]
entity JarFile--><rect fill="#FEFECE" filter="url(#fef6q0t4s2mij)" height="39.2969" style="stroke: #000000; stroke-width: 1.5;" width="79" x="817.5" y="435.9531"/><polygon fill="#FEFECE" points="879.5,440.9531,879.5,454.9531,891.5,454.9531,891.5,446.9531,885.5,440.9531,879.5,440.9531" style="stroke: #000000; stroke-width: 1.5;"/><line style="stroke: #000000; stroke-width: 1.5;" x1="885.5" x2="885.5" y1="440.9531" y2="446.9531"/><line style="stroke: #000000; stroke-width: 1.5;" x1="891.5" x2="885.5" y1="446.9531" y2="446.9531"/><text fill="#000000" font-family="sans-serif" font-size="14" lengthAdjust="spacingAndGlyphs" textLength="49" x="827.5" y="461.9482">JAR File</text><!--MD5=[672e4f77684b02080a48764dcc1bdc5e]
entity Tomcat--><rect fill="#FEFECE" filter="url(#fef6q0t4s2mij)" height="36.2969" style="stroke: #A80036; stroke-width: 1.5;" width="152" x="605" y="605.4531"/><rect fill="#FEFECE" height="5" style="stroke: #A80036; stroke-width: 1.5;" width="10" x="600" y="610.4531"/><rect fill="#FEFECE" height="5" style="stroke: #A80036; stroke-width: 1.5;" width="10" x="600" y="631.75"/><text fill="#000000" font-family="sans-serif" font-size="14" lengthAdjust="spacingAndGlyphs" textLength="132" x="615" y="628.4482">Embedded Tomcat</text><!--MD5=[ca9d8efb2474661e80bd730792436545]
entity MVC--><rect fill="#FEFECE" filter="url(#fef6q0t4s2mij)" height="36.2969" style="stroke: #A80036; stroke-width: 1.5;" width="99" x="631.5" y="735.9531"/><rect fill="#FEFECE" height="5" style="stroke: #A80036; stroke-width: 1.5;" width="10" x="626.5" y="740.9531"/><rect fill="#FEFECE" height="5" style="stroke: #A80036; stroke-width: 1.5;" width="10" x="626.5" y="762.25"/><text fill="#000000" font-family="sans-serif" font-size="14" lengthAdjust="spacingAndGlyphs" textLength="79" x="641.5" y="758.9482">Spring MVC</text><!--MD5=[13496da38da07b328272a23158d1810f]
entity Security--><rect fill="#FEFECE" filter="url(#fef6q0t4s2mij)" height="36.2969" style="stroke: #A80036; stroke-width: 1.5;" width="123" x="605.5" y="848.9531"/><rect fill="#FEFECE" height="5" style="stroke: #A80036; stroke-width: 1.5;" width="10" x="600.5" y="853.9531"/><rect fill="#FEFECE" height="5" style="stroke: #A80036; stroke-width: 1.5;" width="10" x="600.5" y="875.25"/><text fill="#000000" font-family="sans-serif" font-size="14" lengthAdjust="spacingAndGlyphs" textLength="103" x="615.5" y="871.9482">Spring Security</text><!--MD5=[c74a98954e9ea47a4d31897c9094f7bb]
entity BusinessLogic--><rect fill="#FEFECE" filter="url(#fef6q0t4s2mij)" height="36.2969" style="stroke: #A80036; stroke-width: 1.5;" width="124" x="709" y="961.9531"/><rect fill="#FEFECE" height="5" style="stroke: #A80036; stroke-width: 1.5;" width="10" x="704" y="966.9531"/><rect fill="#FEFECE" height="5" style="stroke: #A80036; stroke-width: 1.5;" width="10" x="704" y="988.25"/><text fill="#000000" font-family="sans-serif" font-size="14" lengthAdjust="spacingAndGlyphs" textLength="104" x="719" y="984.9482">Business Logic</text><!--MD5=[73f77d30f1891fdeed3521069d480769]
entity HangHoaData--><polygon fill="#FEFECE" filter="url(#fef6q0t4s2mij)" points="950.5,1248.9531,950.5,1285.25,1057.5,1285.25,1057.5,1258.9531,1047.5,1248.9531,950.5,1248.9531" style="stroke: #000000; stroke-width: 1.5;"/><path d="M1047.5,1248.9531 L1047.5,1258.9531 L1057.5,1258.9531 " fill="#FEFECE" style="stroke: #000000; stroke-width: 1.5;"/><text fill="#000000" font-family="sans-serif" font-size="14" lengthAdjust="spacingAndGlyphs" textLength="87" x="960.5" y="1271.9482">hanghoa.dat</text><!--MD5=[449f8a3a793be905b6cafd0b0f38ef39]
entity NhapData--><polygon fill="#FEFECE" filter="url(#fef6q0t4s2mij)" points="1092.5,1248.9531,1092.5,1285.25,1173.5,1285.25,1173.5,1258.9531,1163.5,1248.9531,1092.5,1248.9531" style="stroke: #000000; stroke-width: 1.5;"/><path d="M1163.5,1248.9531 L1163.5,1258.9531 L1173.5,1258.9531 " fill="#FEFECE" style="stroke: #000000; stroke-width: 1.5;"/><text fill="#000000" font-family="sans-serif" font-size="14" lengthAdjust="spacingAndGlyphs" textLength="61" x="1102.5" y="1271.9482">nhap.dat</text><!--MD5=[48d51b1ac1f312aeb73d1a56aedf76a8]
entity BanData--><polygon fill="#FEFECE" filter="url(#fef6q0t4s2mij)" points="939,1421.9531,939,1458.25,1011,1458.25,1011,1431.9531,1001,1421.9531,939,1421.9531" style="stroke: #000000; stroke-width: 1.5;"/><path d="M1001,1421.9531 L1001,1431.9531 L1011,1431.9531 " fill="#FEFECE" style="stroke: #000000; stroke-width: 1.5;"/><text fill="#000000" font-family="sans-serif" font-size="14" lengthAdjust="spacingAndGlyphs" textLength="52" x="949" y="1444.9482">ban.dat</text><!--MD5=[ecdc0ee7231650903ed887bbdc9202f3]
entity ConfigFile--><polygon fill="#FEFECE" filter="url(#fef6q0t4s2mij)" points="1046.5,1421.9531,1046.5,1458.25,1183.5,1458.25,1183.5,1431.9531,1173.5,1421.9531,1046.5,1421.9531" style="stroke: #000000; stroke-width: 1.5;"/><path d="M1173.5,1421.9531 L1173.5,1431.9531 L1183.5,1431.9531 " fill="#FEFECE" style="stroke: #000000; stroke-width: 1.5;"/><text fill="#000000" font-family="sans-serif" font-size="14" lengthAdjust="spacingAndGlyphs" textLength="117" x="1056.5" y="1444.9482">config.properties</text><!--MD5=[21e87ae24f1e9a9d310d7e15b33555fa]
entity CSS--><polygon fill="#FEFECE" filter="url(#fef6q0t4s2mij)" points="329.5,1248.9531,329.5,1285.25,412.5,1285.25,412.5,1258.9531,402.5,1248.9531,329.5,1248.9531" style="stroke: #000000; stroke-width: 1.5;"/><path d="M402.5,1248.9531 L402.5,1258.9531 L412.5,1258.9531 " fill="#FEFECE" style="stroke: #000000; stroke-width: 1.5;"/><text fill="#000000" font-family="sans-serif" font-size="14" lengthAdjust="spacingAndGlyphs" textLength="63" x="339.5" y="1271.9482">CSS Files</text><!--MD5=[ad41aca18c70598adf1be20eed337942]
entity JS--><polygon fill="#FEFECE" filter="url(#fef6q0t4s2mij)" points="448,1248.9531,448,1285.25,568,1285.25,568,1258.9531,558,1248.9531,448,1248.9531" style="stroke: #000000; stroke-width: 1.5;"/><path d="M558,1248.9531 L558,1258.9531 L568,1258.9531 " fill="#FEFECE" style="stroke: #000000; stroke-width: 1.5;"/><text fill="#000000" font-family="sans-serif" font-size="14" lengthAdjust="spacingAndGlyphs" textLength="100" x="458" y="1271.9482">JavaScript Files</text><!--MD5=[ae883bbda7b60c4609ccd8c6540dbc78]
entity Images--><polygon fill="#FEFECE" filter="url(#fef6q0t4s2mij)" points="336,1421.9531,336,1458.25,406,1458.25,406,1431.9531,396,1421.9531,336,1421.9531" style="stroke: #000000; stroke-width: 1.5;"/><path d="M396,1421.9531 L396,1431.9531 L406,1431.9531 " fill="#FEFECE" style="stroke: #000000; stroke-width: 1.5;"/><text fill="#000000" font-family="sans-serif" font-size="14" lengthAdjust="spacingAndGlyphs" textLength="50" x="346" y="1444.9482">Images</text><!--MD5=[93a9bf8c2294e71b256847b6b0f3efec]
entity ThymeleafFiles--><polygon fill="#FEFECE" filter="url(#fef6q0t4s2mij)" points="675,1248.9531,675,1285.25,843,1285.25,843,1258.9531,833,1248.9531,675,1248.9531" style="stroke: #000000; stroke-width: 1.5;"/><path d="M833,1248.9531 L833,1258.9531 L843,1258.9531 " fill="#FEFECE" style="stroke: #000000; stroke-width: 1.5;"/><text fill="#000000" font-family="sans-serif" font-size="14" lengthAdjust="spacingAndGlyphs" textLength="148" x="685" y="1271.9482">Thymeleaf Templates</text><!--MD5=[7453483e40b7d823ca17f971f918f6f5]
entity Linux--><rect fill="#FEFECE" filter="url(#fef6q0t4s2mij)" height="36.2969" style="stroke: #A80036; stroke-width: 1.5;" width="157" x="1369.5" y="1592.9531"/><rect fill="#FEFECE" height="5" style="stroke: #A80036; stroke-width: 1.5;" width="10" x="1364.5" y="1597.9531"/><rect fill="#FEFECE" height="5" style="stroke: #A80036; stroke-width: 1.5;" width="10" x="1364.5" y="1619.25"/><text fill="#000000" font-family="sans-serif" font-size="14" lengthAdjust="spacingAndGlyphs" textLength="137" x="1379.5" y="1615.9482">Ubuntu 24.04.2 LTS</text><!--MD5=[fb1239b090e799ef2ed2bb62c488a4ee]
entity Docker--><rect fill="#FEFECE" filter="url(#fef6q0t4s2mij)" height="36.2969" style="stroke: #A80036; stroke-width: 1.5;" width="141" x="1381.5" y="1421.9531"/><rect fill="#FEFECE" height="5" style="stroke: #A80036; stroke-width: 1.5;" width="10" x="1376.5" y="1426.9531"/><rect fill="#FEFECE" height="5" style="stroke: #A80036; stroke-width: 1.5;" width="10" x="1376.5" y="1448.25"/><text fill="#000000" font-family="sans-serif" font-size="14" lengthAdjust="spacingAndGlyphs" textLength="121" x="1391.5" y="1444.9482">Docker Container</text><path d="M374,91.9531 L374,147.3516 L612,147.3516 L612,101.9531 L602,91.9531 L374,91.9531 " fill="#FBFB77" filter="url(#fef6q0t4s2mij)" style="stroke: #A80036; stroke-width: 1.0;"/><path d="M602,91.9531 L602,101.9531 L612,101.9531 L602,91.9531 " fill="#FBFB77" style="stroke: #A80036; stroke-width: 1.0;"/><text fill="#000000" font-family="sans-serif" font-size="13" lengthAdjust="spacingAndGlyphs" textLength="116" x="380" y="109.02">End user interface</text><text fill="#000000" font-family="sans-serif" font-size="13" lengthAdjust="spacingAndGlyphs" textLength="147" x="380" y="124.1528">Responsive web design</text><text fill="#000000" font-family="sans-serif" font-size="13" lengthAdjust="spacingAndGlyphs" textLength="217" x="380" y="139.2856">Compatible with modern browsers</text><path d="M1145,587.9531 L1145,658.4844 L1331,658.4844 L1331,597.9531 L1321,587.9531 L1145,587.9531 " fill="#FBFB77" filter="url(#fef6q0t4s2mij)" style="stroke: #A80036; stroke-width: 1.0;"/><path d="M1321,587.9531 L1321,597.9531 L1331,597.9531 L1321,587.9531 " fill="#FBFB77" style="stroke: #A80036; stroke-width: 1.0;"/><text fill="#000000" font-family="sans-serif" font-size="13" lengthAdjust="spacingAndGlyphs" textLength="98" x="1151" y="605.02">Spring Boot 2.x</text><text fill="#000000" font-family="sans-serif" font-size="13" lengthAdjust="spacingAndGlyphs" textLength="118" x="1151" y="620.1528">Auto-configuration</text><text fill="#000000" font-family="sans-serif" font-size="13" lengthAdjust="spacingAndGlyphs" textLength="142" x="1151" y="635.2856">Embedded web server</text><text fill="#000000" font-family="sans-serif" font-size="13" lengthAdjust="spacingAndGlyphs" textLength="165" x="1151" y="650.4185">Production ready features</text><path d="M6,1412.4531 L6,1467.8516 L222,1467.8516 L222,1422.4531 L212,1412.4531 L6,1412.4531 " fill="#FBFB77" filter="url(#fef6q0t4s2mij)" style="stroke: #A80036; stroke-width: 1.0;"/><path d="M212,1412.4531 L212,1422.4531 L222,1422.4531 L212,1412.4531 " fill="#FBFB77" style="stroke: #A80036; stroke-width: 1.0;"/><text fill="#000000" font-family="sans-serif" font-size="13" lengthAdjust="spacingAndGlyphs" textLength="115" x="12" y="1429.52">Binary file storage</text><text fill="#000000" font-family="sans-serif" font-size="13" lengthAdjust="spacingAndGlyphs" textLength="195" x="12" y="1444.6528">No external database required</text><text fill="#000000" font-family="sans-serif" font-size="13" lengthAdjust="spacingAndGlyphs" textLength="150" x="12" y="1459.7856">Lightweight persistence</text><path d="M1575,1412.4531 L1575,1435.9531 L1522.58,1439.9531 L1575,1443.9531 L1575,1467.8516 A0,0 0 0 0 1575,1467.8516 L1767,1467.8516 A0,0 0 0 0 1767,1467.8516 L1767,1422.4531 L1757,1412.4531 L1575,1412.4531 A0,0 0 0 0 1575,1412.4531 " fill="#FBFB77" filter="url(#fef6q0t4s2mij)" style="stroke: #A80036; stroke-width: 1.0;"/><path d="M1757,1412.4531 L1757,1422.4531 L1767,1422.4531 L1757,1412.4531 " fill="#FBFB77" style="stroke: #A80036; stroke-width: 1.0;"/><text fill="#000000" font-family="sans-serif" font-size="13" lengthAdjust="spacingAndGlyphs" textLength="171" x="1581" y="1429.52">Development environment</text><text fill="#000000" font-family="sans-serif" font-size="13" lengthAdjust="spacingAndGlyphs" textLength="148" x="1581" y="1444.6528">Consistent deployment</text><text fill="#000000" font-family="sans-serif" font-size="13" lengthAdjust="spacingAndGlyphs" textLength="143" x="1581" y="1459.7856">Isolated dependencies</text><!--MD5=[95f10c8f0611d9fe9781a42e49eb1fe6]
link Browser to AppServer--><path d="M501.0043,286.2831 C501.2134,286.3176 501.4264,286.3529 501.6434,286.3887 C503.379,286.6756 505.3643,287.0032 507.5888,287.3696 C516.4867,288.8349 529.2119,290.9195 545.0906,293.4916 C576.8481,298.6356 621.22,305.7294 672.8175,313.7181 C776.0125,329.6956 908.11,349.2531 1026,363.9531 C1043.51,366.1331 1092.55,359.4531 1105,371.9531 C1108.1475,375.1144 1110.65,378.7197 1112.6176,382.6152 C1113.1094,383.589 1113.5679,384.5811 1113.9946,385.5888 C1114.208,386.0927 1114.4135,386.6005 1114.6112,387.1119 C1114.7101,387.3676 1114.807,387.6242 1114.902,387.8817 " fill="none" id="Browser-&gt;AppServer" style="stroke: #A80036; stroke-width: 1.0;"/><polygon fill="#A80036" points="1114.902,387.8817,1115.5384,378.0535,1113.1708,383.191,1108.0333,380.8234,1114.902,387.8817" style="stroke: #A80036; stroke-width: 1.0;"/><text fill="#000000" font-family="sans-serif" font-size="13" lengthAdjust="spacingAndGlyphs" textLength="77" x="1027" y="345.02">HTTPS/HTTP</text><text fill="#000000" font-family="sans-serif" font-size="13" lengthAdjust="spacingAndGlyphs" textLength="72" x="1029.5" y="360.1528">(Port 8080)</text><!--MD5=[42df191426fe9cf73ae04606e77b322f]
link DevMachine to AppServer--><path d="M1113,292.7073 C1113,292.996 1113,293.2919 1113,293.5949 C1113,298.4429 1113,305.0973 1113,312.9558 C1113,328.6728 1113,349.2063 1113,369.7369 C1113,374.8695 1113,380.002 1113,385.059 C1113,385.6911 1113,386.3221 1113,386.9517 C1113,387.2665 1113,387.581 1113,387.8951 " fill="none" id="DevMachine-&gt;AppServer" style="stroke: #A80036; stroke-width: 1.0;"/><polygon fill="#A80036" points="1113,387.8951,1117,378.8951,1113,382.8951,1109,378.8951,1113,387.8951" style="stroke: #A80036; stroke-width: 1.0;"/><text fill="#000000" font-family="sans-serif" font-size="13" lengthAdjust="spacingAndGlyphs" textLength="44" x="1141" y="345.02">Deploy</text><text fill="#000000" font-family="sans-serif" font-size="13" lengthAdjust="spacingAndGlyphs" textLength="98" x="1114" y="360.1528">(Maven/Gradle)</text><!--MD5=[eb05dd28a054e0790ac89fb9b869437e]
link Git to DevMachine--><path d="M1113,137.5331 C1113,178.6031 1113,279.7231 1113,282.8731 " fill="none" id="Git-&gt;DevMachine" style="stroke: #A80036; stroke-width: 1.0;"/><polygon fill="#A80036" points="1113,282.8731,1117,273.8731,1113,277.8731,1109,273.8731,1113,282.8731" style="stroke: #A80036; stroke-width: 1.0;"/><text fill="#000000" font-family="sans-serif" font-size="13" lengthAdjust="spacingAndGlyphs" textLength="82" x="1114" y="190.02">Source Code</text><!--MD5=[92da914b241826ef7f6d06edc28c47e5]
link SpringApp to JRE--><path d="M865.2584,632.4854 C866.8114,633.9975 868.555,635.695 870.4642,637.5538 C878.1009,644.9888 888.3869,655.0031 899.7238,666.0406 C922.3975,688.1156 949.275,714.2831 967.57,732.0931 " fill="none" id="SpringApp-&gt;JRE" style="stroke: #A80036; stroke-width: 1.0;"/><polygon fill="#A80036" points="971.43,735.8531,967.7648,726.7116,967.8448,732.3679,962.1885,732.4479,971.43,735.8531" style="stroke: #A80036; stroke-width: 1.0;"/><text fill="#000000" font-family="sans-serif" font-size="13" lengthAdjust="spacingAndGlyphs" textLength="51" x="939" y="702.02">Runs on</text><!--MD5=[c26f0cb78dbaface8f20c76f9be9033b]
link JarFile to SpringApp--><path d="M857,475.1731 C857,485.8556 857,500.2 857,515.7569 C857,523.5353 857,531.6169 857,539.6954 C857,543.7346 857,547.7731 857,551.7726 C857,553.7723 857,555.7623 857,557.7377 C857,558.7255 857,559.7095 857,560.6894 C857,561.1793 857,561.6682 857,562.1559 " fill="none" id="JarFile-&gt;SpringApp" style="stroke: #A80036; stroke-width: 1.0;"/><polygon fill="#A80036" points="857,562.1559,861,553.1559,857,557.1559,853,553.1559,857,562.1559" style="stroke: #A80036; stroke-width: 1.0;"/><text fill="#000000" font-family="sans-serif" font-size="13" lengthAdjust="spacingAndGlyphs" textLength="56" x="858" y="534.52">Contains</text><!--MD5=[20382fc9629c71f2fa2b7701cefa5b50]
link Tomcat to MVC--><path d="M668.25,641.7231 C657.77,658.0831 645.61,683.4131 652,705.9531 C654.51,714.8131 659.22,723.6431 664.13,731.2131 " fill="none" id="Tomcat-&gt;MVC" style="stroke: #A80036; stroke-width: 1.0;"/><polygon fill="#A80036" points="667.19,735.7631,665.4799,726.0639,664.3968,731.6161,658.8446,730.533,667.19,735.7631" style="stroke: #A80036; stroke-width: 1.0;"/><text fill="#000000" font-family="sans-serif" font-size="13" lengthAdjust="spacingAndGlyphs" textLength="37" x="653" y="702.02">Hosts</text><!--MD5=[4b8cbc3f87aee2f4d481b597132abb63]
link MVC to Security--><path d="M678.81,772.2931 C676.39,791.5231 672.47,822.5831 669.82,843.6131 " fill="none" id="MVC-&gt;Security" style="stroke: #A80036; stroke-width: 1.0;"/><polygon fill="#A80036" points="669.17,848.7331,674.2704,840.3078,669.799,843.7728,666.3339,839.3014,669.17,848.7331" style="stroke: #A80036; stroke-width: 1.0;"/><text fill="#000000" font-family="sans-serif" font-size="13" lengthAdjust="spacingAndGlyphs" textLength="81" x="675" y="815.02">Protected by</text><!--MD5=[d8041d68e6db18d864b0f0fb6609eb0b]
link MVC to BusinessLogic--><path d="M726.52,771.9531 C740.66,779.2531 755.11,789.1031 765,801.9531 C801.11,848.8631 807.35,874.2831 794,931.9531 C792,940.6031 788.17,949.4931 784.21,957.1831 " fill="none" id="MVC-&gt;BusinessLogic" style="stroke: #A80036; stroke-width: 1.0;"/><polygon fill="#A80036" points="781.74,961.8131,789.5078,955.7582,784.0952,957.4025,782.4508,951.99,781.74,961.8131" style="stroke: #A80036; stroke-width: 1.0;"/><text fill="#000000" font-family="sans-serif" font-size="13" lengthAdjust="spacingAndGlyphs" textLength="32" x="801" y="871.52">Uses</text><!--MD5=[e8e276bbd8b53229d1371284fac37ec4]
link SpringApp to DataFiles--><path d="M865.1078,624.3007 C866.7102,624.2858 868.5314,624.2764 870.5544,624.2771 C878.6461,624.2802 889.9655,624.4466 903.4255,625.0814 C930.3453,626.3509 965.8269,629.4938 1001.1713,636.9494 C1071.86,651.8606 1142,684.0231 1142,752.9531 C1142,752.9531 1142,752.9531 1142,980.9531 C1142,1073.9531 1057.94,1067.4131 972,1102.9531 C951.61,1111.3831 937.72,1094.5131 923,1110.9531 C900.35,1136.2481 898.0575,1174.1906 901.57,1206.2031 C902.4481,1214.2063 903.6891,1221.8388 905.0654,1228.8104 C905.4095,1230.5533 905.7621,1232.2548 906.1195,1233.9106 C906.2983,1234.7385 906.4782,1235.5549 906.659,1236.3593 C906.7494,1236.7615 906.8399,1237.1607 906.9306,1237.5568 " fill="none" id="SpringApp-&gt;DataFiles" style="stroke: #A80036; stroke-width: 1.0;"/><polygon fill="#A80036" points="906.9306,1237.5568,908.8207,1227.891,905.8145,1232.6829,901.0226,1229.6767,906.9306,1237.5568" style="stroke: #A80036; stroke-width: 1.0;"/><text fill="#000000" font-family="sans-serif" font-size="13" lengthAdjust="spacingAndGlyphs" textLength="68" x="1143" y="871.52">Read/Write</text><!--MD5=[57e77df8fd2d43c24166f871a54ea22f]
link SpringApp to StaticFiles--><path d="M580.7619,684.9909 C580.3715,685.0035 579.9823,685.0165 579.5943,685.0299 C576.4905,685.1371 573.4664,685.2691 570.5297,685.4295 C558.7833,686.0713 548.4375,687.1681 540,688.9531 C451.59,707.6631 347,662.5831 347,752.9531 C347,752.9531 347,752.9531 347,980.9531 C347,1040.6731 324.21,1052.2931 313,1110.9531 C309.7925,1127.7281 307.0131,1145.6338 304.6453,1163.0977 C303.4614,1171.8296 302.3804,1180.4511 301.4002,1188.7657 C300.9101,1192.923 300.4452,1197.0035 300.0053,1200.9827 C299.8953,1201.9775 299.7868,1202.966 299.68,1203.9477 C299.6265,1204.4386 299.5735,1204.9278 299.5208,1205.4153 " fill="none" id="SpringApp-&gt;StaticFiles" style="stroke: #A80036; stroke-width: 1.0;"/><polygon fill="#A80036" points="299.5208,1205.4153,304.4643,1196.897,300.0578,1200.4442,296.5106,1196.0378,299.5208,1205.4153" style="stroke: #A80036; stroke-width: 1.0;"/><text fill="#000000" font-family="sans-serif" font-size="13" lengthAdjust="spacingAndGlyphs" textLength="44" x="348" y="871.52">Serves</text><!--MD5=[d4d8f8d2c550ecb0fa17d39b47789d48]
link SpringApp to Templates--><path d="M580.7775,692.4516 C580.4769,692.5748 580.1767,692.6974 579.8771,692.8193 C579.2779,693.0633 578.6806,693.3048 578.0853,693.544 C576.8949,694.0226 575.7127,694.4923 574.5397,694.9548 C569.8475,696.8048 565.3013,698.5394 560.955,700.2638 C552.2625,703.7125 544.37,707.1206 537.71,711.3306 C524.39,719.7506 516,731.3781 516,752.9531 C516,752.9531 516,752.9531 516,980.9531 C516,1046.1531 557.75,1051.2631 584,1110.9531 C598.515,1143.9531 612.3075,1182.0181 622.5725,1212.1681 C625.1388,1219.7056 627.4845,1226.7484 629.566,1233.0938 C630.0864,1234.6801 630.5902,1236.2228 631.0769,1237.7188 C631.3202,1238.4668 631.5592,1239.2031 631.7939,1239.9273 C631.8525,1240.1083 631.9109,1240.2886 631.969,1240.4682 " fill="none" id="SpringApp-&gt;Templates" style="stroke: #A80036; stroke-width: 1.0;"/><polygon fill="#A80036" points="631.969,1240.4682,633.0032,1230.6737,630.4293,1235.7111,625.392,1233.1373,631.969,1240.4682" style="stroke: #A80036; stroke-width: 1.0;"/><text fill="#000000" font-family="sans-serif" font-size="13" lengthAdjust="spacingAndGlyphs" textLength="52" x="517" y="871.52">Renders</text><!--MD5=[a930825a3f3d022dc2c5f96d4778e4ff]
link AppServer to OS--><path d="M1121.292,457.3684 C1121.4889,457.3924 1121.689,457.4169 1121.8924,457.4419 C1122.299,457.492 1122.7184,457.5441 1123.1503,457.5984 C1124.0141,457.707 1124.9279,457.824 1125.8896,457.95 C1133.5835,458.9575 1144.3466,460.5318 1157.1452,462.848 C1182.7422,467.4803 1216.4806,475.08 1250.0888,487.0469 C1317.305,510.9806 1384,552.3831 1384,622.4531 C1384,622.4531 1384,622.4531 1384,1267.9531 C1384,1305.6831 1381.82,1317.8431 1362,1349.9531 C1359.19,1354.5031 1355.46,1353.2031 1353,1357.9531 C1350.985,1361.8494 1349.3261,1365.9897 1347.9666,1370.2578 C1347.6267,1371.3249 1347.3055,1372.3999 1347.0022,1373.4811 C1346.9643,1373.6162 1346.9266,1373.7515 1346.8893,1373.8868 " fill="none" id="AppServer-&gt;OS" style="stroke: #A80036; stroke-width: 1.0;"/><polygon fill="#A80036" points="1346.8893,1373.8868,1353.14,1366.2758,1348.2198,1369.0671,1345.4285,1364.1469,1346.8893,1373.8868" style="stroke: #A80036; stroke-width: 1.0;"/><text fill="#000000" font-family="sans-serif" font-size="13" lengthAdjust="spacingAndGlyphs" textLength="51" x="1385" y="871.52">Runs on</text><!--MD5=[3e9f4ff16c611bd3a09def5cced7c7e3]
link FileSystem to OS--><path d="M1256.0109,1293.2133 C1256.1739,1293.6876 1256.3391,1294.1661 1256.5064,1294.6488 C1256.8411,1295.6143 1257.1845,1296.5962 1257.5363,1297.5931 C1263.165,1313.5431 1270.955,1333.3031 1280,1349.9531 C1291.265,1370.6881 1306.6325,1392.2181 1319.485,1408.9081 C1322.6981,1413.0806 1325.7541,1416.9506 1328.5494,1420.4301 C1329.9471,1422.1698 1331.2796,1423.8119 1332.5341,1425.3453 C1332.8477,1425.7287 1333.1564,1426.1053 1333.4601,1426.4749 C1333.6119,1426.6597 1333.7625,1426.8428 1333.9117,1427.0241 " fill="none" id="FileSystem-&gt;OS" style="stroke: #A80036; stroke-width: 1.0;"/><polygon fill="#A80036" points="1333.9117,1427.0241,1331.2795,1417.5334,1330.7338,1423.1639,1325.1033,1422.6182,1333.9117,1427.0241" style="stroke: #A80036; stroke-width: 1.0;"/><text fill="#000000" font-family="sans-serif" font-size="13" lengthAdjust="spacingAndGlyphs" textLength="76" x="1281" y="1346.02">Mounted on</text><!--MD5=[cf0f418eabca47173267feac1c6844a3]
link Docker to Linux--><path d="M1451.59,1458.0831 C1450.87,1488.8331 1449.34,1553.3431 1448.53,1587.5531 " fill="none" id="Docker-&gt;Linux" style="stroke: #A80036; stroke-width: 1.0;"/><polygon fill="#A80036" points="1448.41,1592.7731,1452.6152,1583.8672,1448.5246,1587.7744,1444.6173,1583.6838,1448.41,1592.7731" style="stroke: #A80036; stroke-width: 1.0;"/><text fill="#000000" font-family="sans-serif" font-size="13" lengthAdjust="spacingAndGlyphs" textLength="62" x="1450" y="1559.02">Container</text><!--MD5=[51ba83256f8eec27a560d18cd2b2c4b7]
link WebBrowser to Frontend--><path d="M402.1,302.1431 C402.28,332.9731 402.67,397.6831 402.87,431.9831 " fill="none" id="WebBrowser-&gt;Frontend" style="stroke: #A80036; stroke-width: 1.0;"/><polygon fill="#A80036" points="402.9,437.2231,406.8485,428.2004,402.8714,432.2232,398.8486,428.2461,402.9,437.2231" style="stroke: #A80036; stroke-width: 1.0;"/><text fill="#000000" font-family="sans-serif" font-size="13" lengthAdjust="spacingAndGlyphs" textLength="52" x="403" y="352.52">Renders</text><!--MD5=[6e07d543d39a3272629204c9d03b3d7c]
link Frontend to Tomcat--><path d="M409.85,473.5331 C418.03,491.9431 433.39,520.9431 455,538.4531 C496.82,572.3231 553.64,593.3631 599.84,605.9131 " fill="none" id="Frontend-&gt;Tomcat" style="stroke: #A80036; stroke-width: 1.0;"/><polygon fill="#A80036" points="604.84,607.2531,597.1894,601.0509,600.0119,605.9533,595.1096,608.7758,604.84,607.2531" style="stroke: #A80036; stroke-width: 1.0;"/><text fill="#000000" font-family="sans-serif" font-size="13" lengthAdjust="spacingAndGlyphs" textLength="95" x="456" y="534.52">HTTP Requests</text><!--MD5=[1eeafb3c49e84d3e99786113b44b5ca8]
link Security to BusinessLogic--><path d="M663.25,885.2131 C661.26,899.0331 660.83,918.2831 670,931.9531 C678.33,944.3631 690.83,953.5631 704.22,960.3631 " fill="none" id="Security-&gt;BusinessLogic" style="stroke: #A80036; stroke-width: 1.0;"/><polygon fill="#A80036" points="708.8,962.5731,702.452,955.043,704.3025,960.3886,698.9568,962.239,708.8,962.5731" style="stroke: #A80036; stroke-width: 1.0;"/><text fill="#000000" font-family="sans-serif" font-size="13" lengthAdjust="spacingAndGlyphs" textLength="118" x="671" y="928.02">Authorized Access</text><!--MD5=[7a4f446477cf536098775d545c469360]
link BusinessLogic to DataFiles--><path d="M784.72,998.1731 C803.42,1022.2731 837.11,1067.9631 859,1110.9531 C875.355,1143.0831 889.1775,1181.1331 898.9975,1211.4919 C901.4525,1219.0816 903.6573,1226.1905 905.5891,1232.6062 C906.072,1234.2101 906.5379,1235.7706 906.9863,1237.2845 " fill="none" id="BusinessLogic-&gt;DataFiles" style="stroke: #A80036; stroke-width: 1.0;"/><polygon fill="#A80036" points="906.9863,1237.2845,908.2655,1227.5191,905.5662,1232.4904,900.5949,1229.7912,906.9863,1237.2845" style="stroke: #A80036; stroke-width: 1.0;"/><text fill="#000000" font-family="sans-serif" font-size="13" lengthAdjust="spacingAndGlyphs" textLength="109" x="854" y="1099.02">Data Persistence</text><!--MD5=[cc9a5996780b87046b8ffb98639899bf]
link GMN87 to Browser--><path d="M493,147.2831 C493,158.6431 493,172.6281 493,187.2581 C493,194.5731 493,202.0494 493,209.4394 C493,211.2869 493,213.129 493,214.9618 C493,215.8783 493,216.7924 493,217.7037 " fill="none" id="GMN87-Browser" style="stroke: #A80036; stroke-width: 1.0; stroke-dasharray: 7.0,7.0;"/><!--MD5=[0babb614d31d9cd951c224104caa0494]
link SpringApp to GMN90--><path d="M865.227,623.4531 C865.6011,623.4531 865.9752,623.4531 866.3494,623.4531 C869.3425,623.4531 872.3356,623.4531 875.3287,623.4531 C881.315,623.4531 887.3012,623.4531 893.2875,623.4531 C905.26,623.4531 917.2324,623.4531 929.2048,623.4531 C953.1497,623.4531 977.0944,623.4531 1001.0387,623.4531 C1048.9275,623.4531 1096.815,623.4531 1144.7,623.4531 " fill="none" id="SpringApp-GMN90" style="stroke: #A80036; stroke-width: 1.0; stroke-dasharray: 7.0,7.0;"/><!--MD5=[b1c55439668583e20c070913ec68d5f2]
link DataFiles to GMN93--><path d="M906.9802,1280.4426 C906.7577,1280.7607 906.531,1281.0828 906.3,1281.4088 C905.8382,1282.0607 905.3597,1282.7281 904.8649,1283.409 C902.8859,1286.1325 900.6466,1289.0719 898.1738,1292.1031 C888.2825,1304.2281 874.655,1317.8231 859,1324.9531 C748.37,1375.3231 431.53,1331.0131 313,1357.9531 C260.99,1369.7731 204.99,1393.6631 165.69,1412.4531 " fill="none" id="DataFiles-GMN93" style="stroke: #A80036; stroke-width: 1.0; stroke-dasharray: 7.0,7.0;"/><!--MD5=[9fee6e0b3606bc7e65a65bb42acac35f]
link HangHoaData to NhapData--><!--MD5=[f2f9fec59270229f3d3d6b5f4ddeee63]
link HangHoaData to BanData--><!--MD5=[0f76edd915a76fbc9cff1e97166cada7]
link BanData to ConfigFile--><!--MD5=[fa1ee67220fed360d1c625664d69b809]
link CSS to JS--><!--MD5=[552f749c3951ee5fe633fa72cbd3b98a]
link CSS to Images--><!--MD5=[696e2590bc90c0ec46ec0896ed874b3f]
@startuml deployment-diagram
title Deployment Diagram - Quản Lý Cửa Hàng Tạp Hóa

node "Client Browser" as Browser {
    component "Web Browser" as WebBrowser
    component "HTML/CSS/JS" as Frontend
}

node "Development Machine" as DevMachine {
    component "VS Code" as VSCode
    component "Git Repository" as Git
    component "Maven/Gradle" as BuildTool
}

node "Application Server" as AppServer {
    component "Spring Boot Application" as SpringApp {
        component "Embedded Tomcat" as Tomcat
        component "Spring MVC" as MVC
        component "Spring Security" as Security
        component "Business Logic" as BusinessLogic
    }
    
    component "Java Runtime Environment" as JRE
    
    artifact "JAR File" as JarFile
}

node "File System" as FileSystem {
    database "Data Files" as DataFiles {
        file "hanghoa.dat" as HangHoaData
        file "nhap.dat" as NhapData  
        file "ban.dat" as BanData
        file "config.properties" as ConfigFile
    }
    
    folder "Static Resources" as StaticFiles {
        file "CSS Files" as CSS
        file "JavaScript Files" as JS
        file "Images" as Images
    }
    
    folder "Templates" as Templates {
        file "Thymeleaf Templates" as ThymeleafFiles
    }
}

node "Operating System" as OS {
    component "Ubuntu 24.04.2 LTS" as Linux
    component "Docker Container" as Docker
}

Browser - -> AppServer : HTTPS/HTTP\n(Port 8080)

DevMachine - -> AppServer : Deploy\n(Maven/Gradle)
Git - -> DevMachine : Source Code

SpringApp - -> JRE : Runs on
JarFile - -> SpringApp : Contains
Tomcat - -> MVC : Hosts
MVC - -> Security : Protected by
MVC - -> BusinessLogic : Uses

SpringApp - -> DataFiles : Read/Write
SpringApp - -> StaticFiles : Serves
SpringApp - -> Templates : Renders

AppServer - -> OS : Runs on
FileSystem - -> OS : Mounted on
Docker - -> Linux : Container

WebBrowser - -> Frontend : Renders
Frontend - -> Tomcat : HTTP Requests
Security - -> BusinessLogic : Authorized Access
BusinessLogic - -> DataFiles : Data Persistence

note top of Browser
    End user interface
    Responsive web design
    Compatible with modern browsers
end note

note right of SpringApp
    Spring Boot 2.x
    Auto-configuration
    Embedded web server
    Production ready features
end note

note bottom of DataFiles
    Binary file storage
    No external database required
    Lightweight persistence
end note

note left of Docker
    Development environment
    Consistent deployment
    Isolated dependencies
end note

@enduml

PlantUML version 1.2020.02(Sun Mar 01 10:22:07 UTC 2020)
(GPL source distribution)
Java Runtime: OpenJDK Runtime Environment
JVM: OpenJDK 64-Bit Server VM
Java Version: 11.0.14.1+1-LTS
Operating System: Linux
Default Encoding: UTF-8
Language: en
Country: null
--></g></svg>