<?xml version="1.0" encoding="UTF-8" standalone="no"?><svg xmlns="http://www.w3.org/2000/svg" xmlns:xlink="http://www.w3.org/1999/xlink" contentScriptType="application/ecmascript" contentStyleType="text/css" height="1991px" preserveAspectRatio="none" style="width:791px;height:1991px;" version="1.1" viewBox="0 0 791 1991" width="791px" zoomAndPan="magnify"><defs><filter height="300%" id="frvl4wm3md81f" width="300%" x="-1" y="-1"><feGaussianBlur result="blurOut" stdDeviation="2.0"/><feColorMatrix in="blurOut" result="blurOut2" type="matrix" values="0 0 0 0 0 0 0 0 0 0 0 0 0 0 0 0 0 0 .4 0"/><feOffset dx="4.0" dy="4.0" in="blurOut2" result="blurOut3"/><feBlend in="SourceGraphic" in2="blurOut3" mode="normal"/></filter></defs><g><text fill="#000000" font-family="sans-serif" font-size="18" lengthAdjust="spacingAndGlyphs" textLength="426" x="188.5" y="16.708">Use Case Diagram - Quản Lý Cửa Hàng Tạp Hóa</text><!--MD5=[4bebd4ba7e34ce263d30180f5454de09]
cluster Quản lý Hàng Hóa--><polygon fill="#FFFFFF" filter="url(#frvl4wm3md81f)" points="196,178.9531,341,178.9531,348,201.25,428,201.25,428,629.9531,196,629.9531,196,178.9531" style="stroke: #000000; stroke-width: 1.5;"/><line style="stroke: #000000; stroke-width: 1.5;" x1="196" x2="348" y1="201.25" y2="201.25"/><text fill="#000000" font-family="sans-serif" font-size="14" font-weight="bold" lengthAdjust="spacingAndGlyphs" textLength="139" x="200" y="193.9482">Quản lý Hàng Hóa</text><!--MD5=[c723eb7232ded947f1c0aa61e93c1779]
cluster Quản lý Nhập Hàng--><polygon fill="#FFFFFF" filter="url(#frvl4wm3md81f)" points="190,1228.9531,345,1228.9531,352,1251.25,765.5,1251.25,765.5,1549.9531,190,1549.9531,190,1228.9531" style="stroke: #000000; stroke-width: 1.5;"/><line style="stroke: #000000; stroke-width: 1.5;" x1="190" x2="352" y1="1251.25" y2="1251.25"/><text fill="#000000" font-family="sans-serif" font-size="14" font-weight="bold" lengthAdjust="spacingAndGlyphs" textLength="149" x="194" y="1243.9482">Quản lý Nhập Hàng</text><!--MD5=[f247279b30634c0becc1e1738663b5a4]
cluster Quản lý Bán Hàng--><polygon fill="#FFFFFF" filter="url(#frvl4wm3md81f)" points="194,888.9531,338,888.9531,345,911.25,769,911.25,769,1204.9531,194,1204.9531,194,888.9531" style="stroke: #000000; stroke-width: 1.5;"/><line style="stroke: #000000; stroke-width: 1.5;" x1="194" x2="345" y1="911.25" y2="911.25"/><text fill="#000000" font-family="sans-serif" font-size="14" font-weight="bold" lengthAdjust="spacingAndGlyphs" textLength="138" x="198" y="903.9482">Quản lý Bán Hàng</text><!--MD5=[44110f8e404a5f6fa5fe9a8ec9dd8752]
cluster Quản lý Doanh Thu--><polygon fill="#FFFFFF" filter="url(#frvl4wm3md81f)" points="198,1746.9531,353,1746.9531,360,1769.25,745,1769.25,745,1979.9531,198,1979.9531,198,1746.9531" style="stroke: #000000; stroke-width: 1.5;"/><line style="stroke: #000000; stroke-width: 1.5;" x1="198" x2="360" y1="1769.25" y2="1769.25"/><text fill="#000000" font-family="sans-serif" font-size="14" font-weight="bold" lengthAdjust="spacingAndGlyphs" textLength="149" x="202" y="1761.9482">Quản lý Doanh Thu</text><!--MD5=[d0ca5df81a7ddb30032f8f3d8934ca98]
cluster Quản lý Hệ thống--><polygon fill="#FFFFFF" filter="url(#frvl4wm3md81f)" points="564.5,225.9531,706.5,225.9531,713.5,248.25,729.5,248.25,729.5,500.9531,564.5,500.9531,564.5,225.9531" style="stroke: #000000; stroke-width: 1.5;"/><line style="stroke: #000000; stroke-width: 1.5;" x1="564.5" x2="713.5" y1="248.25" y2="248.25"/><text fill="#000000" font-family="sans-serif" font-size="14" font-weight="bold" lengthAdjust="spacingAndGlyphs" textLength="136" x="568.5" y="240.9482">Quản lý Hệ thống</text><ellipse cx="312.0454" cy="453.0622" fill="#FEFECE" filter="url(#frvl4wm3md81f)" rx="71.0454" ry="16.6091" style="stroke: #A80036; stroke-width: 1.5;"/><text fill="#000000" font-family="sans-serif" font-size="14" lengthAdjust="spacingAndGlyphs" textLength="109" x="257.5454" y="457.7106">Thêm hàng hóa</text><ellipse cx="312.2229" cy="525.9977" fill="#FEFECE" filter="url(#frvl4wm3md81f)" rx="93.2229" ry="21.0446" style="stroke: #A80036; stroke-width: 1.5;"/><text fill="#000000" font-family="sans-serif" font-size="14" lengthAdjust="spacingAndGlyphs" textLength="161" x="231.7229" y="530.6461">Sửa thông tin hàng hóa</text><ellipse cx="312.0794" cy="597.969" fill="#FEFECE" filter="url(#frvl4wm3md81f)" rx="65.5794" ry="15.5159" style="stroke: #A80036; stroke-width: 1.5;"/><text fill="#000000" font-family="sans-serif" font-size="14" lengthAdjust="spacingAndGlyphs" textLength="95" x="264.5794" y="602.6174">Xóa hàng hóa</text><ellipse cx="312.1374" cy="382.8806" fill="#FEFECE" filter="url(#frvl4wm3md81f)" rx="80.1374" ry="18.4275" style="stroke: #A80036; stroke-width: 1.5;"/><text fill="#000000" font-family="sans-serif" font-size="14" lengthAdjust="spacingAndGlyphs" textLength="131" x="246.6374" y="387.529">Tìm kiếm hàng hóa</text><ellipse cx="311.9738" cy="236.8479" fill="#FEFECE" filter="url(#frvl4wm3md81f)" rx="99.9738" ry="22.3948" style="stroke: #A80036; stroke-width: 1.5;"/><text fill="#000000" font-family="sans-serif" font-size="14" lengthAdjust="spacingAndGlyphs" textLength="176" x="223.9738" y="241.4963">Xem danh sách hàng hóa</text><ellipse cx="312.1576" cy="311.8846" fill="#FEFECE" filter="url(#frvl4wm3md81f)" rx="72.6576" ry="16.9315" style="stroke: #A80036; stroke-width: 1.5;"/><text fill="#000000" font-family="sans-serif" font-size="14" lengthAdjust="spacingAndGlyphs" textLength="113" x="255.6576" y="316.5331">Kiểm tra tồn kho</text><ellipse cx="312.1456" cy="1442.9822" fill="#FEFECE" filter="url(#frvl4wm3md81f)" rx="70.6456" ry="16.5291" style="stroke: #A80036; stroke-width: 1.5;"/><text fill="#000000" font-family="sans-serif" font-size="14" lengthAdjust="spacingAndGlyphs" textLength="108" x="258.1456" y="1447.6307">Tạo phiếu nhập</text><ellipse cx="311.9086" cy="1368.0348" fill="#FEFECE" filter="url(#frvl4wm3md81f)" rx="105.9086" ry="23.5817" style="stroke: #A80036; stroke-width: 1.5;"/><text fill="#000000" font-family="sans-serif" font-size="14" lengthAdjust="spacingAndGlyphs" textLength="189" x="217.4086" y="1372.6833">Xem danh sách phiếu nhập</text><ellipse cx="312.228" cy="1513.9987" fill="#FEFECE" filter="url(#frvl4wm3md81f)" rx="85.728" ry="19.5456" style="stroke: #A80036; stroke-width: 1.5;"/><text fill="#000000" font-family="sans-serif" font-size="14" lengthAdjust="spacingAndGlyphs" textLength="144" x="240.228" y="1518.6472">Tìm kiếm phiếu nhập</text><ellipse cx="311.8822" cy="1287.0296" fill="#FEFECE" filter="url(#frvl4wm3md81f)" rx="100.8822" ry="22.5764" style="stroke: #A80036; stroke-width: 1.5;"/><text fill="#000000" font-family="sans-serif" font-size="14" lengthAdjust="spacingAndGlyphs" textLength="178" x="222.8822" y="1291.678">Thống kê nhập theo ngày</text><ellipse cx="647.2042" cy="1325.894" fill="#FEFECE" filter="url(#frvl4wm3md81f)" rx="102.7042" ry="22.9408" style="stroke: #A80036; stroke-width: 1.5;"/><text fill="#000000" font-family="sans-serif" font-size="14" lengthAdjust="spacingAndGlyphs" textLength="182" x="556.2042" y="1330.5424">Cập nhật tồn kho khi nhập</text><ellipse cx="312.1107" cy="1099.7753" fill="#FEFECE" filter="url(#frvl4wm3md81f)" rx="67.1107" ry="15.8221" style="stroke: #A80036; stroke-width: 1.5;"/><text fill="#000000" font-family="sans-serif" font-size="14" lengthAdjust="spacingAndGlyphs" textLength="99" x="262.6107" y="1104.4237">Tạo phiếu bán</text><ellipse cx="311.7923" cy="946.7116" fill="#FEFECE" filter="url(#frvl4wm3md81f)" rx="101.7923" ry="22.7585" style="stroke: #A80036; stroke-width: 1.5;"/><text fill="#000000" font-family="sans-serif" font-size="14" lengthAdjust="spacingAndGlyphs" textLength="180" x="221.7923" y="951.36">Xem danh sách phiếu bán</text><ellipse cx="311.8427" cy="1169.7217" fill="#FEFECE" filter="url(#frvl4wm3md81f)" rx="81.8427" ry="18.7685" style="stroke: #A80036; stroke-width: 1.5;"/><text fill="#000000" font-family="sans-serif" font-size="14" lengthAdjust="spacingAndGlyphs" textLength="135" x="244.3427" y="1174.3701">Tìm kiếm phiếu bán</text><ellipse cx="311.8093" cy="1026.715" fill="#FEFECE" filter="url(#frvl4wm3md81f)" rx="96.8093" ry="21.7619" style="stroke: #A80036; stroke-width: 1.5;"/><text fill="#000000" font-family="sans-serif" font-size="14" lengthAdjust="spacingAndGlyphs" textLength="169" x="227.3093" y="1031.3634">Thống kê bán theo ngày</text><ellipse cx="646.9086" cy="948.0348" fill="#FEFECE" filter="url(#frvl4wm3md81f)" rx="105.9086" ry="23.5817" style="stroke: #A80036; stroke-width: 1.5;"/><text fill="#000000" font-family="sans-serif" font-size="14" lengthAdjust="spacingAndGlyphs" textLength="189" x="552.4086" y="952.6833">Kiểm tra hàng trước khi bán</text><ellipse cx="647.1147" cy="1043.0761" fill="#FEFECE" filter="url(#frvl4wm3md81f)" rx="98.6147" ry="22.1229" style="stroke: #A80036; stroke-width: 1.5;"/><text fill="#000000" font-family="sans-serif" font-size="14" lengthAdjust="spacingAndGlyphs" textLength="173" x="560.6147" y="1047.7245">Cập nhật tồn kho khi bán</text><ellipse cx="312.1626" cy="1803.9857" fill="#FEFECE" filter="url(#frvl4wm3md81f)" rx="98.1626" ry="22.0325" style="stroke: #A80036; stroke-width: 1.5;"/><text fill="#000000" font-family="sans-serif" font-size="14" lengthAdjust="spacingAndGlyphs" textLength="172" x="226.1626" y="1808.6341">Xem thống kê doanh thu</text><ellipse cx="646.8427" cy="1800.7217" fill="#FEFECE" filter="url(#frvl4wm3md81f)" rx="81.8427" ry="18.7685" style="stroke: #A80036; stroke-width: 1.5;"/><text fill="#000000" font-family="sans-serif" font-size="14" lengthAdjust="spacingAndGlyphs" textLength="135" x="579.3427" y="1805.3701">Tính tổng tiền nhập</text><ellipse cx="647.0262" cy="1872.9584" fill="#FEFECE" filter="url(#frvl4wm3md81f)" rx="78.0262" ry="18.0052" style="stroke: #A80036; stroke-width: 1.5;"/><text fill="#000000" font-family="sans-serif" font-size="14" lengthAdjust="spacingAndGlyphs" textLength="126" x="584.0262" y="1877.6068">Tính tổng tiền bán</text><ellipse cx="647.0794" cy="1941.969" fill="#FEFECE" filter="url(#frvl4wm3md81f)" rx="65.5794" ry="15.5159" style="stroke: #A80036; stroke-width: 1.5;"/><text fill="#000000" font-family="sans-serif" font-size="14" lengthAdjust="spacingAndGlyphs" textLength="95" x="599.5794" y="1946.6174">Xác định lãi/lỗ</text><ellipse cx="312.0616" cy="1880.0655" fill="#FEFECE" filter="url(#frvl4wm3md81f)" rx="83.5616" ry="19.1123" style="stroke: #A80036; stroke-width: 1.5;"/><text fill="#000000" font-family="sans-serif" font-size="14" lengthAdjust="spacingAndGlyphs" textLength="139" x="242.5616" y="1884.7139">Thống kê theo ngày</text><ellipse cx="312.0752" cy="1949.1682" fill="#FEFECE" filter="url(#frvl4wm3md81f)" rx="64.0752" ry="15.215" style="stroke: #A80036; stroke-width: 1.5;"/><text fill="#000000" font-family="sans-serif" font-size="14" lengthAdjust="spacingAndGlyphs" textLength="91" x="266.5752" y="1953.8166">Xuất báo cáo</text><ellipse cx="647.2401" cy="275.9768" fill="#FEFECE" filter="url(#frvl4wm3md81f)" rx="56.7401" ry="14.5236" style="stroke: #A80036; stroke-width: 1.5;"/><text fill="#000000" font-family="sans-serif" font-size="14" lengthAdjust="spacingAndGlyphs" textLength="76" x="609.2401" y="280.6252">Đăng nhập</text><ellipse cx="647.2046" cy="339.9768" fill="#FEFECE" filter="url(#frvl4wm3md81f)" rx="53.2046" ry="14.5236" style="stroke: #A80036; stroke-width: 1.5;"/><text fill="#000000" font-family="sans-serif" font-size="14" lengthAdjust="spacingAndGlyphs" textLength="71" x="611.7046" y="344.6252">Đăng xuất</text><ellipse cx="647.2254" cy="405.1982" fill="#FEFECE" filter="url(#frvl4wm3md81f)" rx="66.7254" ry="15.7451" style="stroke: #A80036; stroke-width: 1.5;"/><text fill="#000000" font-family="sans-serif" font-size="14" lengthAdjust="spacingAndGlyphs" textLength="98" x="598.2254" y="409.8466">Lưu trữ dữ liệu</text><ellipse cx="646.9975" cy="469.9768" fill="#FEFECE" filter="url(#frvl4wm3md81f)" rx="52.4975" ry="14.5236" style="stroke: #A80036; stroke-width: 1.5;"/><text fill="#000000" font-family="sans-serif" font-size="14" lengthAdjust="spacingAndGlyphs" textLength="70" x="611.9975" y="474.6252">Tải dữ liệu</text><!--MD5=[327d8b0cc9017ef0d2f4054fa6547e20]
entity Manager--><ellipse cx="74.5" cy="1110.9531" fill="#FEFECE" filter="url(#frvl4wm3md81f)" rx="8" ry="8" style="stroke: #A80036; stroke-width: 1.5;"/><path d="M74.5,1118.9531 L74.5,1145.9531 M61.5,1126.9531 L87.5,1126.9531 M74.5,1145.9531 L61.5,1160.9531 M74.5,1145.9531 L87.5,1160.9531 " fill="none" filter="url(#frvl4wm3md81f)" style="stroke: #A80036; stroke-width: 1.5;"/><text fill="#000000" font-family="sans-serif" font-size="14" lengthAdjust="spacingAndGlyphs" textLength="119" x="15" y="1179.4482">Quản lý cửa hàng</text><!--MD5=[75bcab72e22e3bde62d8cef4f1a817de]
entity Staff--><ellipse cx="74.5" cy="392.9531" fill="#FEFECE" filter="url(#frvl4wm3md81f)" rx="8" ry="8" style="stroke: #A80036; stroke-width: 1.5;"/><path d="M74.5,400.9531 L74.5,427.9531 M61.5,408.9531 L87.5,408.9531 M74.5,427.9531 L61.5,442.9531 M74.5,427.9531 L87.5,442.9531 " fill="none" filter="url(#frvl4wm3md81f)" style="stroke: #A80036; stroke-width: 1.5;"/><text fill="#000000" font-family="sans-serif" font-size="14" lengthAdjust="spacingAndGlyphs" textLength="137" x="6" y="461.4482">Nhân viên bán hàng</text><!--MD5=[abea0b42432aea0f9ce66e53feda8644]
entity System--><ellipse cx="312" cy="800.9531" fill="#FEFECE" filter="url(#frvl4wm3md81f)" rx="8" ry="8" style="stroke: #A80036; stroke-width: 1.5;"/><path d="M312,808.9531 L312,835.9531 M299,816.9531 L325,816.9531 M312,835.9531 L299,850.9531 M312,835.9531 L325,850.9531 " fill="none" filter="url(#frvl4wm3md81f)" style="stroke: #A80036; stroke-width: 1.5;"/><text fill="#000000" font-family="sans-serif" font-size="14" lengthAdjust="spacingAndGlyphs" textLength="64" x="280" y="869.4482">Hệ thống</text><!--MD5=[6173938b9996cc0246c1f4328623b416]
link Manager to UC1--><path d="M81.8,1101.3831 C103.88,959.3431 176.75,492.7331 182,486.9531 C196.27,471.2331 216.85,462.4131 237.41,457.5631 " fill="none" id="Manager-&gt;UC1" style="stroke: #A80036; stroke-width: 1.0;"/><polygon fill="#A80036" points="242.35,456.4731,232.7021,454.4938,237.4661,457.5442,234.4157,462.3081,242.35,456.4731" style="stroke: #A80036; stroke-width: 1.0;"/><!--MD5=[ac9fa6f713f35f2c42e2d9c5b263dc67]
link Manager to UC2--><path d="M77.62,1101.3231 C84.58,983.4731 110.51,644.8531 182,564.9531 C193.38,552.2331 208.75,543.5931 224.91,537.7431 " fill="none" id="Manager-&gt;UC2" style="stroke: #A80036; stroke-width: 1.0;"/><polygon fill="#A80036" points="229.95,536.0231,220.138,535.1719,225.2225,537.6513,222.7431,542.7358,229.95,536.0231" style="stroke: #A80036; stroke-width: 1.0;"/><!--MD5=[3961558bf79b979cf4a6d91819f1340a]
link Manager to UC3--><path d="M76.39,1101.1231 C79.79,1013.8531 96.02,804.6131 173,650.9531 C186.42,624.1631 216.3,610.7831 244.84,604.1631 " fill="none" id="Manager-&gt;UC3" style="stroke: #A80036; stroke-width: 1.0;"/><polygon fill="#A80036" points="249.77,603.0731,240.1209,601.0998,244.8867,604.1472,241.8393,608.913,249.77,603.0731" style="stroke: #A80036; stroke-width: 1.0;"/><!--MD5=[151cc3f0cba20b5327eabdd5eb8f85b7]
link Manager to UC4--><path d="M80.88,1101.3131 C100.9,950.6431 170.53,431.9631 182,418.9531 C194.65,404.6031 212.49,395.7631 230.88,390.3631 " fill="none" id="Manager-&gt;UC4" style="stroke: #A80036; stroke-width: 1.0;"/><polygon fill="#A80036" points="236.08,388.9331,226.3402,387.4714,231.2602,390.2632,228.4684,395.1832,236.08,388.9331" style="stroke: #A80036; stroke-width: 1.0;"/><!--MD5=[c561748e5a78e2c678264a2a73b5dbc7]
link Manager to UC5--><path d="M79.26,1101.3731 C94.89,934.5931 155.1,309.1331 182,276.9531 C192.13,264.8331 205.87,256.3231 220.61,250.3531 " fill="none" id="Manager-&gt;UC5" style="stroke: #A80036; stroke-width: 1.0;"/><polygon fill="#A80036" points="225.64,248.4331,215.805,247.9104,220.9696,250.2184,218.6615,255.383,225.64,248.4331" style="stroke: #A80036; stroke-width: 1.0;"/><!--MD5=[0578a6f4cda6d86e9bc328ca756ae0b8]
link Manager to UC6--><path d="M79.7,1101.1931 C96.18,942.8231 156.75,375.7731 182,346.9531 C195.87,331.1231 216.12,322.1131 236.47,317.0831 " fill="none" id="Manager-&gt;UC6" style="stroke: #A80036; stroke-width: 1.0;"/><polygon fill="#A80036" points="241.37,315.9431,231.6994,314.0776,236.499,317.0716,233.505,321.8712,241.37,315.9431" style="stroke: #A80036; stroke-width: 1.0;"/><!--MD5=[1f657687d2024fbd3b1abe2be271b383]
link Manager to UC7--><path d="M80.3,1182.8331 C89.41,1241.6031 114.73,1349.4231 182,1408.9531 C198.06,1423.1631 219.37,1431.5431 240.04,1436.4531 " fill="none" id="Manager-&gt;UC7" style="stroke: #A80036; stroke-width: 1.0;"/><polygon fill="#A80036" points="244.99,1437.5631,237.0921,1431.679,240.1128,1436.4618,235.33,1439.4825,244.99,1437.5631" style="stroke: #A80036; stroke-width: 1.0;"/><!--MD5=[f00aecc4635ab541b565408f4c27c32d]
link Manager to UC8--><path d="M88.83,1182.4531 C104.64,1224.4231 134.96,1289.0631 182,1326.9531 C194.85,1337.3031 210.36,1345.0631 226.11,1350.8731 " fill="none" id="Manager-&gt;UC8" style="stroke: #A80036; stroke-width: 1.0;"/><polygon fill="#A80036" points="231,1352.6131,223.8605,1345.8288,226.289,1350.9378,221.18,1353.3663,231,1352.6131" style="stroke: #A80036; stroke-width: 1.0;"/><!--MD5=[9dd375ae0fafde84e8b6f1c93c8ac6c5]
link Manager to UC9--><path d="M76.59,1182.5431 C80.71,1252.6631 99.4,1396.6731 182,1476.9531 C195.21,1489.7931 212.57,1498.2331 230.25,1503.7631 " fill="none" id="Manager-&gt;UC9" style="stroke: #A80036; stroke-width: 1.0;"/><polygon fill="#A80036" points="235.24,1505.2431,227.7426,1498.8565,230.445,1503.8261,225.4754,1506.5285,235.24,1505.2431" style="stroke: #A80036; stroke-width: 1.0;"/><!--MD5=[7975826b71e8667b2a1b074c8b6f7efa]
link Manager to UC10--><path d="M134.02,1177.9831 C177.08,1204.5031 234.44,1239.8131 272.03,1262.9531 " fill="none" id="Manager-&gt;UC10" style="stroke: #A80036; stroke-width: 1.0;"/><polygon fill="#A80036" points="276.51,1265.7131,270.9536,1257.5813,272.2556,1263.0863,266.7507,1264.3883,276.51,1265.7131" style="stroke: #A80036; stroke-width: 1.0;"/><!--MD5=[fe2126dc55b42151d947526f1ed1bc81]
link Manager to UC12--><path d="M134.02,1131.5131 C170.11,1125.0831 216.25,1116.8531 252.36,1110.4131 " fill="none" id="Manager-&gt;UC12" style="stroke: #A80036; stroke-width: 1.0;"/><polygon fill="#A80036" points="257.62,1109.4731,248.0598,1107.106,252.6968,1110.3461,249.4567,1114.9831,257.62,1109.4731" style="stroke: #A80036; stroke-width: 1.0;"/><!--MD5=[2d42066c3223d706a1c7c4983f63a334]
link Manager to UC13--><path d="M93.81,1101.2531 C111.59,1066.1531 141.78,1016.5731 182,986.9531 C195.77,976.8131 212.17,969.2031 228.58,963.5031 " fill="none" id="Manager-&gt;UC13" style="stroke: #A80036; stroke-width: 1.0;"/><polygon fill="#A80036" points="233.67,961.7931,223.8661,960.8533,228.928,963.3785,226.4028,968.4405,233.67,961.7931" style="stroke: #A80036; stroke-width: 1.0;"/><!--MD5=[61428d8e49cbb9a417faf9c4a9f42d85]
link Manager to UC14--><path d="M134.02,1148.9131 C164.01,1152.4731 200.95,1156.8731 233.3,1160.7131 " fill="none" id="Manager-&gt;UC14" style="stroke: #A80036; stroke-width: 1.0;"/><polygon fill="#A80036" points="238.46,1161.3231,230.0059,1156.2707,233.4962,1160.7223,229.0446,1164.2127,238.46,1161.3231" style="stroke: #A80036; stroke-width: 1.0;"/><!--MD5=[55bc7c957f08d3fa515114d68c872beb]
link Manager to UC15--><path d="M125.37,1101.2731 C142.56,1088.6631 162.43,1075.5731 182,1065.9531 C199.91,1057.1531 220.2,1049.8931 239.3,1044.1131 " fill="none" id="Manager-&gt;UC15" style="stroke: #A80036; stroke-width: 1.0;"/><polygon fill="#A80036" points="244.12,1042.6831,234.3529,1041.4166,239.3277,1044.1094,236.6349,1049.0842,244.12,1042.6831" style="stroke: #A80036; stroke-width: 1.0;"/><!--MD5=[46f702f3c3407fbc8cd5b72a7999c3ce]
link Manager to UC18--><path d="M76.69,1182.7031 C81.08,1305.2231 100.05,1667.2231 173,1754.9531 C186.69,1771.4231 206.32,1782.3531 226.49,1789.6231 " fill="none" id="Manager-&gt;UC18" style="stroke: #A80036; stroke-width: 1.0;"/><polygon fill="#A80036" points="231.35,1791.2931,224.1431,1784.5804,226.6225,1789.6649,221.538,1792.1444,231.35,1791.2931" style="stroke: #A80036; stroke-width: 1.0;"/><!--MD5=[72b930434683e2cdb42338efd72f3498]
link Manager to UC19--><path d="M80.8,1182.5031 C93.69,1275.0931 129.56,1498.0931 182,1549.9531 C289.15,1655.9231 384.17,1550.5631 511,1631.9531 C569.07,1669.2231 613.33,1740.0531 633.69,1777.0731 " fill="none" id="Manager-&gt;UC19" style="stroke: #A80036; stroke-width: 1.0;"/><polygon fill="#A80036" points="636.28,1781.8431,635.4931,1772.0258,633.8908,1777.4509,628.4656,1775.8485,636.28,1781.8431" style="stroke: #A80036; stroke-width: 1.0;"/><!--MD5=[953d8f76b7f7adc4b3161fdbf9833181]
link Manager to UC20--><path d="M79.45,1182.5231 C90.19,1284.5331 123.12,1547.9431 182,1609.9531 C286.63,1720.1431 406.56,1592.5831 511,1702.9531 C552.95,1747.2831 500.28,1791.4931 541,1836.9531 C550.88,1847.9831 564.28,1855.6331 578.2,1860.9431 " fill="none" id="Manager-&gt;UC20" style="stroke: #A80036; stroke-width: 1.0;"/><polygon fill="#A80036" points="582.94,1862.6531,575.8372,1855.8304,578.2381,1860.9524,573.1161,1863.3534,582.94,1862.6531" style="stroke: #A80036; stroke-width: 1.0;"/><!--MD5=[06c730d9340b51049d8bb19e63e780b0]
link Manager to UC21--><path d="M78.58,1182.7531 C87.7,1293.1731 118.02,1594.4131 182,1666.9531 C284.08,1782.6931 407.39,1663.5831 511,1777.9531 C550.81,1821.8931 500.92,1864.2531 541,1907.9531 C552.33,1920.3031 568.17,1928.1831 584.12,1933.2031 " fill="none" id="Manager-&gt;UC21" style="stroke: #A80036; stroke-width: 1.0;"/><polygon fill="#A80036" points="589.07,1934.6731,581.5849,1928.272,584.2777,1933.2469,579.3029,1935.9397,589.07,1934.6731" style="stroke: #A80036; stroke-width: 1.0;"/><!--MD5=[34a4faf16d3c965d77fbd33e6bffd120]
link Manager to UC22--><path d="M76.1,1182.4831 C78.9,1316.6731 94.63,1743.5631 182,1842.9531 C194.3,1856.9531 211.51,1865.8131 229.36,1871.3831 " fill="none" id="Manager-&gt;UC22" style="stroke: #A80036; stroke-width: 1.0;"/><polygon fill="#A80036" points="234.4,1872.8631,226.8975,1866.4825,229.6039,1871.45,224.6364,1874.1564,234.4,1872.8631" style="stroke: #A80036; stroke-width: 1.0;"/><!--MD5=[1ee46c8d907c60ddb738473f7b6d3b1d]
link Manager to UC23--><path d="M75.34,1182.7231 C75.62,1326.3631 84.02,1806.1431 182,1915.9531 C197.45,1933.2731 220.63,1942.0831 243.09,1946.3931 " fill="none" id="Manager-&gt;UC23" style="stroke: #A80036; stroke-width: 1.0;"/><polygon fill="#A80036" points="248.17,1947.2931,240.0194,1941.7643,243.2488,1946.4087,238.6044,1949.6382,248.17,1947.2931" style="stroke: #A80036; stroke-width: 1.0;"/><!--MD5=[ae4c8b31bf145e3844f8a584eb855cfc]
link Manager to UC24--><path d="M80.35,1101.2131 C92.65,1004.5631 127.94,765.2031 182,707.9531 C263.08,622.0931 364.03,723.5731 436,629.9531 C457.41,602.0931 425.11,340.6131 448,313.9531 C482.36,273.9331 544.88,267.8631 590.5,269.6431 " fill="none" id="Manager-&gt;UC24" style="stroke: #A80036; stroke-width: 1.0;"/><polygon fill="#A80036" points="595.69,269.8831,586.8826,265.4751,590.6952,269.6541,586.5163,273.4668,595.69,269.8831" style="stroke: #A80036; stroke-width: 1.0;"/><!--MD5=[85115d0072464233a64bd0f45b11d379]
link Manager to UC25--><path d="M75.45,1101.3131 C77.6,1026.2831 93.05,865.3431 182,773.9531 C264.65,689.0431 364.41,787.3631 436,692.9531 C458.71,663.0131 421.97,382.0531 448,354.9531 C487.44,313.9031 558.39,319.5731 603.78,328.7631 " fill="none" id="Manager-&gt;UC25" style="stroke: #A80036; stroke-width: 1.0;"/><polygon fill="#A80036" points="608.91,329.8431,600.9271,324.0748,604.0173,328.8131,599.279,331.9032,608.91,329.8431" style="stroke: #A80036; stroke-width: 1.0;"/><!--MD5=[70e1722cc80e7e9eef13d2ea027bc4d6]
link Staff to UC4--><path d="M143.3,412.1531 C174.51,406.7131 211.48,400.2831 242.74,394.8331 " fill="none" id="Staff-&gt;UC4" style="stroke: #A80036; stroke-width: 1.0;"/><polygon fill="#A80036" points="247.71,393.9731,238.1577,391.5743,242.7839,394.8298,239.5285,399.456,247.71,393.9731" style="stroke: #A80036; stroke-width: 1.0;"/><!--MD5=[d2c9de02f1c19587183d5858e032cd55]
link Staff to UC5--><path d="M95.4,383.3831 C113.63,350.2431 143.59,304.5031 182,276.9531 C196.45,266.5831 213.67,258.8531 230.74,253.0931 " fill="none" id="Staff-&gt;UC5" style="stroke: #A80036; stroke-width: 1.0;"/><polygon fill="#A80036" points="235.55,251.5231,225.755,250.4948,230.7939,253.0656,228.223,258.1046,235.55,251.5231" style="stroke: #A80036; stroke-width: 1.0;"/><!--MD5=[156d561710d0f6865a785d1985ffc64b]
link Staff to UC6--><path d="M123.8,383.3731 C141.28,370.2631 161.72,356.6331 182,346.9531 C203.22,336.8231 227.85,329.2231 249.87,323.7431 " fill="none" id="Staff-&gt;UC6" style="stroke: #A80036; stroke-width: 1.0;"/><polygon fill="#A80036" points="254.82,322.5431,245.1281,320.7916,249.9626,323.7289,247.0254,328.5634,254.82,322.5431" style="stroke: #A80036; stroke-width: 1.0;"/><!--MD5=[d1f47b5f6c380937c93d412c2356c598]
link Staff to UC7--><path d="M79.58,464.6031 C98.16,649.1931 174.13,1399.8031 182,1408.9531 C195.98,1425.2131 216.72,1434.1531 237.5,1438.9531 " fill="none" id="Staff-&gt;UC7" style="stroke: #A80036; stroke-width: 1.0;"/><polygon fill="#A80036" points="242.5,1440.0231,234.5495,1434.2103,237.6131,1438.9657,232.8576,1442.0293,242.5,1440.0231" style="stroke: #A80036; stroke-width: 1.0;"/><!--MD5=[43680102ef36bb7d41ef9e240f07b1cb]
link Staff to UC8--><path d="M79.68,464.5431 C97.65,638.1331 168,1309.9931 182,1326.9531 C191.61,1338.5931 204.52,1346.9731 218.47,1352.9931 " fill="none" id="Staff-&gt;UC8" style="stroke: #A80036; stroke-width: 1.0;"/><polygon fill="#A80036" points="223.24,1354.9531,216.4332,1347.8351,218.6145,1353.0544,213.3952,1355.2358,223.24,1354.9531" style="stroke: #A80036; stroke-width: 1.0;"/><!--MD5=[f0fbc5fda1e88ad12c5cfcb141c61cf9]
link Staff to UC10--><path d="M80.08,464.5931 C97.78,620.5131 161.71,1173.3031 182,1204.9531 C199.4,1232.0931 229.33,1251.9331 255.98,1265.3031 " fill="none" id="Staff-&gt;UC10" style="stroke: #A80036; stroke-width: 1.0;"/><polygon fill="#A80036" points="260.57,1267.5531,254.2703,1259.9826,256.0865,1265.3399,250.7291,1267.1562,260.57,1267.5531" style="stroke: #A80036; stroke-width: 1.0;"/><!--MD5=[189ada55ce2af7418e155a41db2c216d]
link Staff to UC12--><path d="M79.67,464.6231 C93.78,598.7431 141.11,1021.0531 182,1065.9531 C197.08,1082.5131 219.17,1091.4131 240.82,1096.0731 " fill="none" id="Staff-&gt;UC12" style="stroke: #A80036; stroke-width: 1.0;"/><polygon fill="#A80036" points="245.73,1097.0631,237.6956,1091.3667,240.8282,1096.077,236.1179,1099.2096,245.73,1097.0631" style="stroke: #A80036; stroke-width: 1.0;"/><!--MD5=[40153ddc57a1a7776fe2e02f739cddb4]
link Staff to UC13--><path d="M87.45,464.7331 C108.01,536.2531 150.13,689.2431 174,820.9531 C176.75,836.1431 172.84,877.5231 182,889.9531 C195.11,907.7431 215.01,920.0731 235.29,928.5831 " fill="none" id="Staff-&gt;UC13" style="stroke: #A80036; stroke-width: 1.0;"/><polygon fill="#A80036" points="240.17,930.5631,233.3256,923.4812,235.5346,928.6889,230.3268,930.8979,240.17,930.5631" style="stroke: #A80036; stroke-width: 1.0;"/><!--MD5=[895b49a581d4f742459210ff98d1eded]
link Staff to UC15--><path d="M82.01,464.5931 C102.35,590.5631 164.37,967.1931 182,986.9531 C193.04,999.3231 207.81,1007.9031 223.42,1013.8631 " fill="none" id="Staff-&gt;UC15" style="stroke: #A80036; stroke-width: 1.0;"/><polygon fill="#A80036" points="228.29,1015.6231,221.2055,1008.7813,223.5927,1013.9098,218.4642,1016.297,228.29,1015.6231" style="stroke: #A80036; stroke-width: 1.0;"/><!--MD5=[79ba9cc8b069d9c0295fb50a47f10b46]
link Staff to UC16--><path d="M81.4,383.0631 C91.52,329.8131 117.72,238.7231 182,197.9531 C277.33,137.4931 346.85,128.7031 436,197.9531 C453.03,211.1831 439.9,224.9731 448,244.9531 C469.16,297.1631 491.08,302.2531 511,354.9531 C534.42,416.9231 526.76,436.2531 541,500.9531 C575.9,659.4731 621.71,848.6031 638.99,919.3731 " fill="none" id="Staff-&gt;UC16" style="stroke: #A80036; stroke-width: 1.0;"/><polygon fill="#A80036" points="640.19,924.2631,641.9415,914.5713,639.0042,919.4058,634.1697,916.4685,640.19,924.2631" style="stroke: #A80036; stroke-width: 1.0;"/><!--MD5=[ce4e8835893473d53183c5b8826842ee]
link Staff to UC24--><path d="M81.34,383.1931 C94.51,297.9531 129.52,105.7731 182,69.9531 C275.24,6.3131 331.5,27.2531 436,69.9531 C531.11,108.8131 606.42,213.8031 634.32,257.0031 " fill="none" id="Staff-&gt;UC24" style="stroke: #A80036; stroke-width: 1.0;"/><polygon fill="#A80036" points="637.17,261.4731,635.6679,251.7395,634.4662,257.2672,628.9385,256.0655,637.17,261.4731" style="stroke: #A80036; stroke-width: 1.0;"/><!--MD5=[18b9cdd10b87417bfeee8aa03652e7c7]
link Staff to UC25--><path d="M74.63,383.3331 C75.65,315.4631 88.82,180.4231 173,118.9531 C267.4,50.0231 333.97,61.9131 436,118.9531 C491.56,150.0131 481.26,184.6731 511,240.9531 C526.24,269.8031 516.53,286.3731 541,307.9531 C555.44,320.6831 574.82,328.3531 593.01,332.9731 " fill="none" id="Staff-&gt;UC25" style="stroke: #A80036; stroke-width: 1.0;"/><polygon fill="#A80036" points="598.1,334.1931,590.2887,328.1945,593.2394,333.0209,588.413,335.9715,598.1,334.1931" style="stroke: #A80036; stroke-width: 1.0;"/><!--MD5=[cd95642ee9b86d6459849b85bda8ce63]
link UC7 to UC11--><path d="M360.96,1430.9631 C383.85,1424.9231 411.52,1417.1431 436,1408.9531 C490.59,1390.6831 551.65,1366.0631 593.79,1348.3931 " fill="none" id="UC7-&gt;UC11" style="stroke: #A80036; stroke-width: 1.0; stroke-dasharray: 7.0,7.0;"/><polygon fill="#A80036" points="598.58,1346.3731,588.7328,1346.19,593.974,1348.3185,591.8455,1353.5597,598.58,1346.3731" style="stroke: #A80036; stroke-width: 1.0;"/><text fill="#000000" font-family="sans-serif" font-size="13" lengthAdjust="spacingAndGlyphs" textLength="61" x="449" y="1380.02">«include»</text><!--MD5=[18126bedbeefec14c0433688a28d2c99]
link UC12 to UC16--><path d="M373.72,1093.5031 C395.25,1088.7031 418.46,1080.3831 436,1065.9531 C445.21,1058.3731 439.48,1050.3031 448,1041.9531 C483.72,1006.9531 534.96,983.1131 576.36,968.2031 " fill="none" id="UC12-&gt;UC16" style="stroke: #A80036; stroke-width: 1.0; stroke-dasharray: 7.0,7.0;"/><polygon fill="#A80036" points="581.1,966.5131,571.2807,965.7505,576.3874,968.1839,573.954,973.2907,581.1,966.5131" style="stroke: #A80036; stroke-width: 1.0;"/><text fill="#000000" font-family="sans-serif" font-size="13" lengthAdjust="spacingAndGlyphs" textLength="61" x="449" y="994.02">«include»</text><!--MD5=[4b5c43a999495ab8cb15bb23314ecd3a]
link UC12 to UC17--><path d="M371.27,1107.5931 C411.07,1111.1731 464.76,1112.7631 511,1102.9531 C544.68,1095.8031 580.16,1079.6531 606.29,1065.9131 " fill="none" id="UC12-&gt;UC17" style="stroke: #A80036; stroke-width: 1.0; stroke-dasharray: 7.0,7.0;"/><polygon fill="#A80036" points="610.72,1063.5531,600.8951,1064.2392,606.3035,1065.8972,604.6455,1071.3056,610.72,1063.5531" style="stroke: #A80036; stroke-width: 1.0;"/><text fill="#000000" font-family="sans-serif" font-size="13" lengthAdjust="spacingAndGlyphs" textLength="61" x="449" y="1099.02">«include»</text><!--MD5=[4b5c43a999495ab8cb15bb23314ecd3a]
link UC12 to UC17--><path d="M366.87,1090.7331 C419.96,1081.6431 501.8,1067.6331 563.16,1057.1331 " fill="none" id="UC12-&gt;UC17-1" style="stroke: #A80036; stroke-width: 1.0; stroke-dasharray: 7.0,7.0;"/><polygon fill="#A80036" points="568.29,1056.2531,558.7445,1053.8275,563.3615,1057.096,560.0931,1061.713,568.29,1056.2531" style="stroke: #A80036; stroke-width: 1.0;"/><text fill="#000000" font-family="sans-serif" font-size="13" lengthAdjust="spacingAndGlyphs" textLength="60" x="449.5" y="1063.02">«extend»</text><!--MD5=[b96f593c71fba68a3ee0d4ffe4694043]
link UC18 to UC19--><path d="M410.21,1803.0731 C457.53,1802.6531 513.94,1802.1431 559.72,1801.7331 " fill="none" id="UC18-&gt;UC19" style="stroke: #A80036; stroke-width: 1.0; stroke-dasharray: 7.0,7.0;"/><polygon fill="#A80036" points="564.96,1801.6831,555.926,1797.7604,559.9602,1801.726,555.9946,1805.7601,564.96,1801.6831" style="stroke: #A80036; stroke-width: 1.0;"/><text fill="#000000" font-family="sans-serif" font-size="13" lengthAdjust="spacingAndGlyphs" textLength="61" x="449" y="1799.02">«include»</text><!--MD5=[54e13307b8d0027a5a4acca5d2c27470]
link UC18 to UC20--><path d="M384.85,1818.8431 C443.96,1831.0931 526.91,1848.2731 583.35,1859.9731 " fill="none" id="UC18-&gt;UC20" style="stroke: #A80036; stroke-width: 1.0; stroke-dasharray: 7.0,7.0;"/><polygon fill="#A80036" points="588.39,1861.0131,580.3876,1855.2719,583.4938,1859.9996,578.766,1863.1058,588.39,1861.0131" style="stroke: #A80036; stroke-width: 1.0;"/><text fill="#000000" font-family="sans-serif" font-size="13" lengthAdjust="spacingAndGlyphs" textLength="61" x="449" y="1829.02">«include»</text><!--MD5=[6ac2f200736c0beb0e459463ea74aed9]
link UC18 to UC21--><path d="M389.81,1817.4031 C406.47,1823.1331 422.98,1831.3031 436,1842.9531 C445.79,1851.7131 438.57,1860.8131 448,1869.9531 C480.05,1901.0431 499.06,1892.6231 541,1907.9531 C560.41,1915.0531 582.1,1922.2031 600.71,1928.1031 " fill="none" id="UC18-&gt;UC21" style="stroke: #A80036; stroke-width: 1.0; stroke-dasharray: 7.0,7.0;"/><polygon fill="#A80036" points="605.87,1929.7331,598.4895,1923.2118,601.1014,1928.2295,596.0837,1930.8415,605.87,1929.7331" style="stroke: #A80036; stroke-width: 1.0;"/><text fill="#000000" font-family="sans-serif" font-size="13" lengthAdjust="spacingAndGlyphs" textLength="61" x="449" y="1866.02">«include»</text><!--MD5=[51fc8874ee3a78a0c385d8f4c2ae6c7a]
link UC1 to UC26--><path d="M378.05,446.6831 C398.64,441.8531 420.14,433.4531 436,418.9531 C447.21,408.7031 435.52,395.6031 448,386.9531 C470.9,371.0831 543.67,382.3931 594.3,392.9031 " fill="none" id="UC1-&gt;UC26" style="stroke: #A80036; stroke-width: 1.0; stroke-dasharray: 7.0,7.0;"/><polygon fill="#A80036" points="599.44,393.9831,591.4537,388.2195,594.5466,392.9559,589.8102,396.0489,599.44,393.9831" style="stroke: #A80036; stroke-width: 1.0;"/><text fill="#000000" font-family="sans-serif" font-size="13" lengthAdjust="spacingAndGlyphs" textLength="61" x="449" y="376.02">«include»</text><!--MD5=[932d13f143af90b6e0ba34fcd595a395]
link UC2 to UC26--><path d="M389.82,514.2831 C406.87,508.4831 423.55,499.8431 436,486.9531 C449.78,472.6831 433.44,457.4231 448,443.9531 C466.9,426.4731 529.34,416.2031 579.11,410.6331 " fill="none" id="UC2-&gt;UC26" style="stroke: #A80036; stroke-width: 1.0; stroke-dasharray: 7.0,7.0;"/><polygon fill="#A80036" points="584.19,410.0831,574.8005,407.1104,579.2211,410.64,575.6915,415.0606,584.19,410.0831" style="stroke: #A80036; stroke-width: 1.0;"/><text fill="#000000" font-family="sans-serif" font-size="13" lengthAdjust="spacingAndGlyphs" textLength="61" x="449" y="418.02">«include»</text><!--MD5=[392ebc6394102a1cd063c9aab83f737a]
link UC3 to UC26--><path d="M375.72,594.0131 C397.6,589.5131 420.53,580.7331 436,563.9531 C455.32,542.9931 430.87,523.7431 448,500.9531 C466.87,475.8531 485.73,487.6031 511,468.9531 C526.43,457.5631 524.69,448.0231 541,437.9531 C556.25,428.5331 574.42,421.5931 591.32,416.5731 " fill="none" id="UC3-&gt;UC26" style="stroke: #A80036; stroke-width: 1.0; stroke-dasharray: 7.0,7.0;"/><polygon fill="#A80036" points="596.53,415.0731,586.7774,413.6995,591.7224,416.4467,588.9752,421.3917,596.53,415.0731" style="stroke: #A80036; stroke-width: 1.0;"/><text fill="#000000" font-family="sans-serif" font-size="13" lengthAdjust="spacingAndGlyphs" textLength="61" x="449" y="465.02">«include»</text><!--MD5=[b4f5d0d29ea7298e0893cba370063058]
link UC7 to UC26--><path d="M381.19,1439.5631 C402,1434.9431 422.85,1425.9531 436,1408.9531 C461.6,1375.8631 425.83,691.4331 448,655.9531 C464.64,629.3131 492.49,649.3231 511,623.9531 C560.36,556.3131 486.22,501.2831 541,437.9531 C551.59,425.7031 566.68,417.9531 582.12,413.0531 " fill="none" id="UC7-&gt;UC26" style="stroke: #A80036; stroke-width: 1.0; stroke-dasharray: 7.0,7.0;"/><polygon fill="#A80036" points="586.92,411.6331,577.1519,410.3746,582.1289,413.0633,579.4402,418.0403,586.92,411.6331" style="stroke: #A80036; stroke-width: 1.0;"/><text fill="#000000" font-family="sans-serif" font-size="13" lengthAdjust="spacingAndGlyphs" textLength="61" x="449" y="620.02">«include»</text><!--MD5=[49b6096fb57df25cc5266301f8110729]
link UC12 to UC26--><path d="M378.19,1097.1131 C399.95,1092.6831 422.15,1083.6731 436,1065.9531 C467.96,1025.0531 420.29,642.8431 448,598.9531 C464.77,572.4031 491.63,591.6731 511,566.9531 C547.31,520.6231 500.99,481.1231 541,437.9531 C552.06,426.0131 567.39,418.3631 582.92,413.4731 " fill="none" id="UC12-&gt;UC26" style="stroke: #A80036; stroke-width: 1.0; stroke-dasharray: 7.0,7.0;"/><polygon fill="#A80036" points="587.74,412.0431,577.9719,410.7846,582.9489,413.4733,580.2602,418.4503,587.74,412.0431" style="stroke: #A80036; stroke-width: 1.0;"/><text fill="#000000" font-family="sans-serif" font-size="13" lengthAdjust="spacingAndGlyphs" textLength="61" x="449" y="563.02">«include»</text><!--MD5=[3ac677bdf36313af03f41075188f987e]
link System to UC11--><path d="M344.35,834.1431 C389.22,839.1131 470.76,855.2931 511,907.9531 C551.28,960.6631 514.7,1144.0531 541,1204.9531 C557.43,1243.0031 590.32,1277.7631 614.93,1300.1631 " fill="none" id="System-&gt;UC11" style="stroke: #A80036; stroke-width: 1.0;"/><polygon fill="#A80036" points="618.8,1303.6431,614.7862,1294.6493,615.0835,1300.2983,609.4345,1300.5956,618.8,1303.6431" style="stroke: #A80036; stroke-width: 1.0;"/><!--MD5=[4cb2e161ae6a724772242d553d727a96]
link System to UC16--><path d="M344.21,815.1231 C384.41,795.8631 455.7,769.9931 511,794.9531 C567.7,820.5431 610.14,883.0231 631.2,919.7431 " fill="none" id="System-&gt;UC16" style="stroke: #A80036; stroke-width: 1.0;"/><polygon fill="#A80036" points="633.91,924.5231,632.9733,914.7189,631.4539,920.1679,626.0049,918.6486,633.91,924.5231" style="stroke: #A80036; stroke-width: 1.0;"/><!--MD5=[20b86b4079a710f4e7820c19bef98486]
link System to UC17--><path d="M344.25,821.7731 C387.15,809.9531 464.27,796.7031 511,835.9531 C564.06,880.5231 499.36,933.5631 541,988.9531 C552.04,1003.6331 568.2,1014.6431 584.56,1022.7731 " fill="none" id="System-&gt;UC17" style="stroke: #A80036; stroke-width: 1.0;"/><polygon fill="#A80036" points="589.18,1024.9831,582.8127,1017.4693,584.6769,1022.8102,579.336,1024.6743,589.18,1024.9831" style="stroke: #A80036; stroke-width: 1.0;"/><!--MD5=[f9c0b967c7591dbd733162e6e60ad981]
link System to UC26--><path d="M344.27,824.0531 C373.47,814.8631 415.53,796.6231 436,763.9531 C462.24,722.0931 423.99,585.1331 448,541.9531 C464.6,512.1031 488.68,523.8031 511,497.9531 C530.49,475.3931 518.31,457.2931 541,437.9531 C553.78,427.0531 570.17,419.7531 586.17,414.8631 " fill="none" id="System-&gt;UC26" style="stroke: #A80036; stroke-width: 1.0;"/><polygon fill="#A80036" points="591.13,413.4131,581.37,412.0931,586.33,414.8131,583.61,419.7731,591.13,413.4131" style="stroke: #A80036; stroke-width: 1.0;"/><!--MD5=[cc38397db5738e7c433ab9fd2dc2ab69]
link System to UC27--><path d="M344.22,823.1931 C372.75,813.5031 413.77,795.0031 436,763.9531 C453.61,739.3631 431.7,722.4331 448,696.9531 C466.41,668.1831 486.54,676.7831 511,652.9531 C565.12,600.2131 613.78,524.0331 634.89,488.9531 " fill="none" id="System-&gt;UC27" style="stroke: #A80036; stroke-width: 1.0;"/><polygon fill="#A80036" points="637.56,484.4831,629.4996,490.1426,634.9875,488.7706,636.3595,494.2585,637.56,484.4831" style="stroke: #A80036; stroke-width: 1.0;"/><!--MD5=[e6760784ac597fbec1a684ec78562526]
link UC16 to UC6--><path d="M628.84,924.5531 C580.83,859.1031 448.62,678.7531 448,676.9531 C435.98,642.2831 458.64,375.8231 436,346.9531 C424.1,331.7831 406.13,322.8731 387.56,317.7331 " fill="none" id="UC16-&gt;UC6" style="stroke: #A80036; stroke-width: 1.0; stroke-dasharray: 7.0,7.0;"/><polygon fill="#A80036" points="382.31,316.3731,390.0332,322.4848,387.1531,317.616,392.0218,314.7359,382.31,316.3731" style="stroke: #A80036; stroke-width: 1.0;"/><text fill="#000000" font-family="sans-serif" font-size="13" lengthAdjust="spacingAndGlyphs" textLength="60" x="449.5" y="673.02">«extend»</text><!--MD5=[e2c3abe54eee2eea75df057aec23047b]
@startuml use-case-diagram
title Use Case Diagram - Quản Lý Cửa Hàng Tạp Hóa

left to right direction

actor "Quản lý cửa hàng" as Manager
actor "Nhân viên bán hàng" as Staff
actor "Hệ thống" as System

package "Quản lý Hàng Hóa" {
    usecase "Thêm hàng hóa" as UC1
    usecase "Sửa thông tin hàng hóa" as UC2
    usecase "Xóa hàng hóa" as UC3
    usecase "Tìm kiếm hàng hóa" as UC4
    usecase "Xem danh sách hàng hóa" as UC5
    usecase "Kiểm tra tồn kho" as UC6
}

package "Quản lý Nhập Hàng" {
    usecase "Tạo phiếu nhập" as UC7
    usecase "Xem danh sách phiếu nhập" as UC8
    usecase "Tìm kiếm phiếu nhập" as UC9
    usecase "Thống kê nhập theo ngày" as UC10
    usecase "Cập nhật tồn kho khi nhập" as UC11
}

package "Quản lý Bán Hàng" {
    usecase "Tạo phiếu bán" as UC12
    usecase "Xem danh sách phiếu bán" as UC13
    usecase "Tìm kiếm phiếu bán" as UC14
    usecase "Thống kê bán theo ngày" as UC15
    usecase "Kiểm tra hàng trước khi bán" as UC16
    usecase "Cập nhật tồn kho khi bán" as UC17
}

package "Quản lý Doanh Thu" {
    usecase "Xem thống kê doanh thu" as UC18
    usecase "Tính tổng tiền nhập" as UC19
    usecase "Tính tổng tiền bán" as UC20
    usecase "Xác định lãi/lỗ" as UC21
    usecase "Thống kê theo ngày" as UC22
    usecase "Xuất báo cáo" as UC23
}

package "Quản lý Hệ thống" {
    usecase "Đăng nhập" as UC24
    usecase "Đăng xuất" as UC25
    usecase "Lưu trữ dữ liệu" as UC26
    usecase "Tải dữ liệu" as UC27
}

Manager - -> UC1
Manager - -> UC2
Manager - -> UC3
Manager - -> UC4
Manager - -> UC5
Manager - -> UC6

Manager - -> UC7
Manager - -> UC8
Manager - -> UC9
Manager - -> UC10

Manager - -> UC12
Manager - -> UC13
Manager - -> UC14
Manager - -> UC15

Manager - -> UC18
Manager - -> UC19
Manager - -> UC20
Manager - -> UC21
Manager - -> UC22
Manager - -> UC23

Manager - -> UC24
Manager - -> UC25

Staff - -> UC4
Staff - -> UC5
Staff - -> UC6

Staff - -> UC7
Staff - -> UC8
Staff - -> UC10

Staff - -> UC12
Staff - -> UC13
Staff - -> UC15
Staff - -> UC16

Staff - -> UC24
Staff - -> UC25

UC7 ..> UC11 : <<include>>
UC12 ..> UC16 : <<include>>
UC12 ..> UC17 : <<include>>

UC18 ..> UC19 : <<include>>
UC18 ..> UC20 : <<include>>
UC18 ..> UC21 : <<include>>

UC1 ..> UC26 : <<include>>
UC2 ..> UC26 : <<include>>
UC3 ..> UC26 : <<include>>
UC7 ..> UC26 : <<include>>
UC12 ..> UC26 : <<include>>

System - -> UC11
System - -> UC16  
System - -> UC17
System - -> UC26
System - -> UC27

UC16 ..> UC6 : <<extend>>
UC12 ..> UC17 : <<extend>>

@enduml

PlantUML version 1.2020.02(Sun Mar 01 10:22:07 UTC 2020)
(GPL source distribution)
Java Runtime: OpenJDK Runtime Environment
JVM: OpenJDK 64-Bit Server VM
Java Version: 11.0.14.1+1-LTS
Operating System: Linux
Default Encoding: UTF-8
Language: en
Country: null
--></g></svg>